<svg width="16" height="16" viewBox="0 0 16 16" fill="none" xmlns="http://www.w3.org/2000/svg">
  <path d="M11.6939 10.3222C11.5282 10.1562 11.3033 10.0629 11.0688 10.0629H10.8189C10.7506 10.0629 10.6849 10.0364 10.6357 9.98894C10.535 9.89181 10.5281 9.73333 10.6148 9.62352C11.416 8.60899 11.8925 7.33012 11.8925 5.94625C11.8925 2.66209 9.23042 0 5.94625 0C2.66209 0 0 2.66209 0 5.94625C0 9.23042 2.66209 11.8925 5.94625 11.8925C7.33012 11.8925 8.60899 11.416 9.62352 10.6148C9.73333 10.5281 9.89181 10.535 9.98894 10.6357C10.0364 10.6849 10.0629 10.7506 10.0629 10.8189V11.0688C10.0629 11.3033 10.1562 11.5282 10.3222 11.6939L13.9547 15.3191C14.3316 15.6953 14.942 15.695 15.3185 15.3185C15.695 14.942 15.6953 14.3316 15.3191 13.9547L11.6939 10.3222ZM5.94625 10.0629C3.66838 10.0629 1.82962 8.22413 1.82962 5.94625C1.82962 3.66838 3.66838 1.82962 5.94625 1.82962C8.22413 1.82962 10.0629 3.66838 10.0629 5.94625C10.0629 8.22413 8.22413 10.0629 5.94625 10.0629Z" fill="#E4E4E4"/>
</svg> 