<svg width="50" height="43" viewBox="0 0 50 43" fill="none" xmlns="http://www.w3.org/2000/svg">
<path d="M5.47583 39.4167C5.47583 39.1778 5.47583 38.9389 5.47583 38.9389C5.47583 34.4 5.47583 29.8611 5.47583 25.5611C5.47583 25.0833 5.47583 25.0833 4.99964 24.8444C1.66631 23.65 -0.476546 20.3056 -0.000355855 16.9611C0.475835 13.3778 3.33298 10.75 6.66631 10.75C10.2377 10.5111 13.333 12.9 14.0473 16.4833C14.7615 20.0667 12.8568 23.65 9.52345 24.6056C9.04726 24.8444 9.04726 25.0833 9.04726 25.3222C9.04726 29.8611 9.04726 34.1611 9.04726 38.7C9.04726 38.9389 9.04726 39.1778 9.04726 39.1778C10.7139 39.1778 12.6187 39.1778 14.2854 39.1778C14.2854 37.9833 14.2854 36.7889 14.2854 35.5944H14.0473C13.0949 35.3556 12.6187 34.6389 12.6187 33.6833C12.6187 32.7278 13.5711 32.0111 14.5235 32.0111C15.952 32.0111 17.3806 32.0111 19.0473 32.0111C22.3806 32.0111 25.4758 32.0111 28.8092 32.0111C29.7616 32.0111 30.2377 32.4889 30.4758 33.2056C30.7139 33.9222 30.4758 34.6389 29.9996 35.1167C29.7616 35.3556 29.2854 35.5944 28.8092 35.5944V35.8333C28.8092 36.7889 28.8092 37.9833 28.8092 38.9389C31.1901 38.9389 33.5711 38.9389 35.952 38.9389C35.952 37.2667 35.952 35.3556 35.952 33.9222C35.4758 33.4444 34.7616 33.2056 34.5235 32.7278C34.2854 32.4889 34.2854 32.0111 34.2854 31.7722C34.2854 30.8167 34.9996 30.3389 35.952 30.1C35.952 28.6667 35.952 27.2333 35.952 25.5611C35.952 25.3222 35.7139 25.3222 35.7139 25.0833C34.7616 24.1278 34.0473 23.4111 33.0949 22.4556C32.1425 21.5 32.1425 20.5444 32.8568 19.8278C33.5711 19.1111 34.7615 19.1111 35.4758 20.0667L35.7139 20.3056C35.7139 19.5889 35.7139 18.8722 35.7139 18.3944C35.952 16.9611 35.4758 16.0056 34.2854 15.05C33.8092 15.05 33.333 14.3333 32.8568 13.8556C32.1425 13.1389 32.1425 11.9444 32.8568 11.2278C33.5711 10.5111 34.7615 10.5111 35.4758 11.2278C35.4758 11.2278 35.7139 11.4667 35.952 11.7056C35.952 10.75 35.952 10.0333 35.952 9.07778C35.7139 7.88333 36.4282 7.16667 37.6187 7.16667C38.5711 7.16667 39.5235 7.88333 39.5235 9.07778C39.5235 9.79444 39.5235 10.75 39.5235 11.4667C39.5235 11.4667 39.7615 11.4667 39.7615 11.7056C39.9996 11.4667 39.9996 11.2278 40.2377 11.2278C40.952 10.5111 41.9044 10.5111 42.6187 11.2278C43.333 11.9444 43.333 12.9 42.6187 13.8556C41.6663 14.8111 40.7139 15.7667 39.7615 16.7222C39.5235 16.9611 39.5235 17.2 39.5235 17.4389C39.5235 18.6333 39.5235 19.5889 39.5235 20.7833C39.7615 20.5444 39.9996 20.3056 39.9996 20.3056C40.7139 19.5889 41.9044 19.5889 42.6187 20.3056C43.333 21.0222 43.333 21.9778 42.6187 22.9333C41.6663 23.8889 40.7139 24.8444 39.7615 25.8C39.5235 26.0389 39.5235 26.2778 39.5235 26.2778C39.5235 27.7111 39.5235 29.1444 39.5235 30.5778C40.4758 30.5778 41.4282 30.3389 42.3806 29.8611C44.9996 28.6667 46.4282 26.2778 46.6663 23.4111C46.6663 19.1111 46.6663 15.05 46.6663 10.75C46.6663 6.92778 43.5711 3.82222 39.5235 3.58333C37.8568 3.58333 36.4282 3.58333 34.7616 3.58333C31.1901 4.06111 28.5711 7.16667 28.5711 10.5111C28.5711 14.8111 28.5711 19.35 28.5711 23.65C28.5711 24.3667 28.8092 25.3222 29.0473 26.0389C29.5235 27.2333 29.0473 28.1889 28.0949 28.6667C27.1425 29.1444 26.1901 28.6667 25.7139 27.4722C25.2377 26.2778 24.9996 24.8444 24.9996 23.4111C24.9996 19.1111 24.9996 15.05 24.9996 10.75C24.9996 4.77778 29.7615 0 35.7139 0C37.3806 0 39.0473 0 40.952 0.238889C45.4758 0.477778 49.2854 4.77778 49.9996 9.31667C49.9996 10.0333 49.9996 10.5111 49.9996 11.2278C49.9996 15.2889 49.9996 19.1111 49.9996 23.1722C49.9996 28.4278 46.4282 32.9667 41.1901 33.9222C40.4758 33.9222 39.9996 34.1611 39.2854 34.1611C39.2854 35.8333 39.2854 37.7444 39.2854 39.4167C39.5235 39.4167 39.7615 39.4167 39.9996 39.4167C42.8568 39.4167 45.4758 39.4167 48.333 39.4167C49.2854 39.4167 49.7615 39.8944 49.9996 40.85C50.2377 41.5667 49.9996 42.5222 49.2854 42.7611C48.8092 43 48.333 43 48.0949 43C44.2854 43 40.2377 43 36.4282 43C24.9996 43 13.8092 43 2.3806 43C2.1425 43 1.90441 43 1.66631 43C0.475835 42.7611 -0.000355855 42.0444 -0.000355855 41.0889C-0.000355855 40.1333 0.71393 39.4167 1.66631 39.4167C2.85679 39.4167 4.04726 39.4167 5.47583 39.4167ZM10.7139 17.9167C10.7139 16.0056 9.04726 14.3333 7.1425 14.3333C5.23774 14.3333 3.57107 16.0056 3.57107 17.9167C3.57107 19.8278 5.23774 21.5 7.1425 21.5C9.04726 21.5 10.7139 19.8278 10.7139 17.9167ZM17.8568 35.8333C17.8568 37.0278 17.8568 38.2222 17.8568 39.4167C20.2377 39.4167 22.6187 39.4167 24.9996 39.4167C24.9996 38.2222 24.9996 37.0278 24.9996 35.8333C22.6187 35.8333 20.2377 35.8333 17.8568 35.8333Z" fill="#FF4A17"/>
</svg>
