<svg width="47" height="43" viewBox="0 0 47 43" fill="none" xmlns="http://www.w3.org/2000/svg">
<g clip-path="url(#clip0_1741_1645)">
<path d="M0 11.4881C0.354948 10.6357 0.991406 10.2898 1.89714 10.3763C2.2276 10.401 2.55807 10.3763 2.9375 10.3763C2.9375 10.1663 2.9375 10.0057 2.9375 9.84514C2.9375 8.1034 2.9375 6.36166 2.9375 4.60756C2.9375 3.77993 3.24349 3.32288 4.01458 3.01406C6.35234 2.07525 8.6901 1.12408 11.0279 0.185271C12.2518 -0.30884 13.2188 0.35821 13.2188 1.69231C13.2188 4.55815 13.2188 7.43635 13.2188 10.3763C13.6716 10.3763 14.1 10.3763 14.5406 10.3763C15.5688 10.3763 16.1562 10.9816 16.1562 12.0192C16.1562 16.108 16.1562 20.1968 16.1562 24.2979C16.1562 24.4585 16.1562 24.6314 16.1562 24.8538C16.3521 24.7426 16.499 24.6808 16.6458 24.5943C19.106 23.1738 21.5539 21.7656 24.0141 20.345C25.3359 19.5791 26.4375 20.2338 26.4497 21.7903C26.4497 22.2103 26.4497 22.6179 26.4497 23.0379C26.4497 23.6185 26.4497 24.1991 26.4497 24.8538C26.6456 24.7549 26.7924 24.6808 26.9271 24.5943C29.3872 23.1738 31.8352 21.7656 34.2953 20.345C35.6294 19.5791 36.731 20.2338 36.731 21.7779C36.731 22.5932 36.731 23.4085 36.731 24.2855C37.1839 24.0632 37.5755 23.8655 37.9672 23.6679C40.2315 22.5191 42.4958 21.3703 44.7724 20.2338C45.7393 19.7521 46.7552 20.1968 46.9755 21.185C47.0122 21.3456 47.0122 21.5185 47.0122 21.6914C47.0122 28.2384 47.0122 34.7854 47.0122 41.3324C47.0122 42.407 46.4247 43 45.3599 43C30.7948 43 16.2297 43 1.67682 43.0123C0.844531 43.0123 0.342708 42.617 0.0122396 41.8882C0 31.7466 0 21.6173 0 11.4881ZM20.5258 40.0106C20.538 39.9241 20.5503 39.8994 20.5503 39.8747C20.5503 38.0218 20.5503 36.1689 20.5503 34.316C20.5503 33.2042 21.1133 32.6236 22.2026 32.6236C27.4656 32.6236 32.7286 32.6236 37.9917 32.6236C39.0565 32.6236 39.644 33.2166 39.644 34.2789C39.644 36.0207 39.644 37.7624 39.644 39.5165C39.644 39.6771 39.644 39.85 39.644 39.9983C41.1495 39.9983 42.5815 39.9983 44.0258 39.9983C44.0258 34.6371 44.0258 29.3008 44.0258 23.9397C43.8544 24.0261 43.7076 24.0755 43.5729 24.1496C41.076 25.4096 38.5792 26.6696 36.0701 27.9296C34.8339 28.5472 33.769 27.8925 33.769 26.4843C33.769 25.7061 33.769 24.9279 33.769 24.0755C33.5365 24.1991 33.3651 24.2855 33.1938 24.3844C30.7703 25.7802 28.3346 27.1884 25.9112 28.5843C24.6138 29.3378 23.4878 28.6831 23.4878 27.1761C23.4878 26.1632 23.4878 25.1502 23.4878 24.0879C23.3654 24.1373 23.3042 24.162 23.243 24.1991C20.9664 25.5085 18.6776 26.8426 16.3888 28.1396C16.1195 28.2878 16.144 28.4855 16.144 28.7202C16.144 32.3272 16.144 35.9465 16.144 39.5536C16.144 39.7018 16.1563 39.85 16.1685 40.0106C17.6495 40.0106 19.0815 40.0106 20.5258 40.0106ZM13.1943 13.378C9.75495 13.378 6.35234 13.378 2.97422 13.378C2.97422 22.272 2.97422 31.1413 2.97422 39.9983C6.4013 39.9983 9.79167 39.9983 13.1943 39.9983C13.1943 31.1166 13.1943 22.272 13.1943 13.378ZM23.5245 39.9983C27.943 39.9983 32.3125 39.9983 36.682 39.9983C36.682 38.5159 36.682 37.0583 36.682 35.613C32.2758 35.613 27.9062 35.613 23.5245 35.613C23.5245 37.0706 23.5245 38.5159 23.5245 39.9983ZM10.269 3.68111C8.82474 4.26169 7.45391 4.80521 6.08307 5.38579C5.97292 5.4352 5.88724 5.6452 5.88724 5.76872C5.86276 6.49754 5.875 7.22635 5.875 7.95516C5.875 8.75809 5.875 9.54867 5.875 10.3516C7.36823 10.3516 8.8125 10.3516 10.269 10.3516C10.269 8.1281 10.269 5.94166 10.269 3.68111Z" fill="#FF4A17"/>
<path d="M23.4883 9.04227C23.5495 5.62055 25.0549 3.1747 27.5885 1.29708C28.1638 0.864735 28.8125 0.53121 29.4367 0.17298C29.8284 -0.0493704 30.2568 -0.0493704 30.6729 0.111216C34.2714 1.51943 36.8294 5.3735 36.707 9.25227C36.6091 12.0687 35.324 14.3046 33.182 16.0463C32.4477 16.6392 31.6154 17.1086 30.8076 17.6027C30.4036 17.8498 29.9508 17.8745 29.5346 17.6522C26.6951 16.2192 24.5654 14.144 23.7453 10.9322C23.6841 10.6728 23.6352 10.4134 23.5984 10.154C23.5495 9.74638 23.5128 9.31403 23.4883 9.04227ZM31.5786 13.5634C32.9128 12.3158 33.7083 10.9199 33.7695 9.17815C33.8552 6.84348 32.7659 5.08938 30.9667 3.75528C29.9508 2.98941 30.269 2.98941 29.2409 3.76764C27.4539 5.11409 26.3401 6.85583 26.438 9.1905C26.5115 10.9322 27.2948 12.3281 28.6289 13.5634C28.6289 13.304 28.6289 13.1557 28.6289 13.0199C28.6289 11.6734 28.6289 10.3393 28.6289 8.99286C28.6289 8.38757 28.8737 7.91817 29.4 7.6217C30.3914 7.07818 31.5542 7.78229 31.5664 8.9558C31.5909 10.4381 31.5786 11.9328 31.5786 13.5634Z" fill="#FF4A17"/>
<path d="M8.07831 19.2704C7.80903 19.2704 7.52752 19.2827 7.25825 19.2704C6.48716 19.221 5.88742 18.5786 5.87518 17.8128C5.86294 17.0222 6.47492 16.3551 7.27049 16.3304C7.80903 16.3057 8.33534 16.3057 8.87388 16.3304C9.66945 16.3675 10.2814 17.0222 10.2814 17.8128C10.2814 18.6033 9.65721 19.2457 8.86164 19.2827C8.60461 19.2827 8.33534 19.2704 8.07831 19.2704Z" fill="#FF4A17"/>
<path d="M8.05365 25.1996C7.79662 25.1996 7.52734 25.212 7.27031 25.1996C6.47474 25.1502 5.875 24.4955 5.875 23.7049C5.88724 22.9267 6.48698 22.2843 7.25807 22.2473C7.80885 22.2226 8.35964 22.2226 8.91042 22.2473C9.68151 22.2843 10.2812 22.9514 10.2812 23.7173C10.2812 24.4831 9.69375 25.1378 8.92266 25.1996C8.62891 25.212 8.33516 25.1996 8.05365 25.1996Z" fill="#FF4A17"/>
<path d="M8.07831 31.129C7.80903 31.129 7.52752 31.1414 7.25825 31.129C6.47492 31.0796 5.86294 30.4126 5.87518 29.622C5.88742 28.8438 6.48716 28.2138 7.27049 28.1767C7.80903 28.152 8.33534 28.152 8.87388 28.1767C9.66945 28.2138 10.2814 28.8685 10.2814 29.6591C10.2814 30.4496 9.65721 31.092 8.86164 31.129C8.60461 31.1414 8.34758 31.129 8.07831 31.129Z" fill="#FF4A17"/>
<path d="M8.09002 37.0584C7.82075 37.0584 7.53924 37.0707 7.26997 37.0584C6.48664 37.009 5.87466 36.3419 5.8869 35.5513C5.89914 34.7731 6.49888 34.1308 7.26997 34.1061C7.82075 34.0813 8.37154 34.0813 8.92232 34.1061C9.69341 34.1431 10.2931 34.8102 10.2809 35.576C10.2809 36.3419 9.68117 36.9966 8.91008 37.046C8.64081 37.0707 8.3593 37.0584 8.09002 37.0584Z" fill="#FF4A17"/>
</g>
<defs>
<clipPath id="clip0_1741_1645">
<rect width="47" height="43" fill="white"/>
</clipPath>
</defs>
</svg>
