<svg width="51" height="43" viewBox="0 0 51 43" fill="none" xmlns="http://www.w3.org/2000/svg">
<g clip-path="url(#clip0_1736_1643)">
<path d="M0 27.3358C0.225781 26.6485 0.371875 25.9347 0.677344 25.287C1.51406 23.5025 2.93516 22.2467 4.54219 21.1892C6.375 19.9731 8.36719 19.0875 10.4523 18.4001C10.6383 18.334 10.8242 18.2679 11.05 18.1886C11.05 17.8581 11.05 17.5277 11.05 17.1972C11.05 14.4874 11.0633 11.7776 11.05 9.06779C11.05 8.31433 11.3555 7.79881 12.0195 7.41547C16.15 5.06256 20.2672 2.69644 24.3844 0.303878C25.1148 -0.119116 25.7523 -0.105898 26.4695 0.317096C30.3477 2.56425 34.2523 4.79819 38.1438 7.03213C38.4094 7.19075 38.7016 7.32294 38.9805 7.45512C39.6445 7.75915 39.9367 8.28789 39.9367 9.0017C39.9367 11.8701 39.9367 14.7518 39.9367 17.6202C39.9367 17.8053 39.9367 17.9771 39.9367 18.1357C41.1055 18.5984 42.2609 19.0214 43.3766 19.5105C45.3555 20.3829 47.2148 21.48 48.7289 23.053C50.2961 24.6657 51.1992 26.556 50.9469 28.8692C50.7211 30.9049 49.6453 32.4779 48.1445 33.7865C46.1922 35.5049 43.868 36.6021 41.4375 37.4745C37.8117 38.7699 34.0664 39.5234 30.2281 39.8538C29.2984 39.9331 28.6078 39.378 28.5148 38.5188C28.4352 37.7389 29.0063 37.0647 29.8828 36.9193C32.1539 36.536 34.4383 36.2452 36.6961 35.7561C39.5516 35.1348 42.3406 34.2227 44.8109 32.6101C45.6344 32.0681 46.418 31.4072 47.0422 30.6669C48.3969 29.0543 48.3438 27.2433 47.0023 25.6042C45.7406 24.0709 44.0672 23.0927 42.2875 22.2864C41.5438 21.9427 40.7734 21.6519 39.9367 21.3214C39.9367 22.1013 39.9234 22.7754 39.9367 23.4496C39.95 24.137 39.6578 24.6393 39.0602 24.9962C34.8367 27.4152 30.6133 29.8474 26.3898 32.2796C25.7922 32.6233 25.2078 32.6233 24.5969 32.2796C20.3734 29.8474 16.15 27.4152 11.9266 24.9962C11.3156 24.6525 11.0367 24.1502 11.05 23.4496C11.0633 22.7754 11.05 22.1013 11.05 21.2817C9.92109 21.784 8.87187 22.1938 7.84922 22.7094C6.42812 23.3967 5.1 24.2691 4.06406 25.5117C2.61641 27.2565 2.62969 29.0278 4.09062 30.7595C5.16641 32.0152 6.53438 32.8744 7.99531 33.6147C9.66875 34.4607 11.4352 35.0819 13.3078 35.5842C13.5203 34.6589 13.7328 33.7469 13.9188 32.8348C14.0516 32.1606 14.357 31.6715 15.0477 31.4733C15.725 31.275 16.2297 31.579 16.6812 32.0417C18.4078 33.7997 20.1477 35.5578 21.8742 37.3159C22.8969 38.3601 22.6711 39.4837 21.3031 40.0389C18.9391 40.9906 16.5617 41.9291 14.1977 42.8677C13.6133 43.1056 13.0555 43.0659 12.5641 42.6562C12.0859 42.2464 11.9531 41.7044 12.0992 41.0832C12.2984 40.2504 12.4711 39.4044 12.657 38.532C12.0063 38.3337 11.382 38.1619 10.7578 37.9504C7.98203 37.0383 5.33906 35.8883 3.09453 33.9716C1.55391 32.6365 0.398438 31.0635 0.053125 29.0014C0.053125 28.975 0.0132813 28.9485 0 28.9221C0 28.3933 0 27.8646 0 27.3358ZM14.0781 11.4603C14.0648 11.5793 14.0516 11.6322 14.0516 11.6983C14.0516 15.2805 14.0516 18.8627 14.0383 22.445C14.0383 22.7754 14.2242 22.8548 14.45 22.9869C17.4914 24.7318 20.5328 26.4766 23.5742 28.2347C23.6938 28.3008 23.8266 28.3669 23.9727 28.433C23.9859 28.3537 23.9992 28.3008 23.9992 28.2612C23.9992 24.6657 23.9992 21.0702 24.0125 17.4616C24.0125 17.1443 23.8398 17.0386 23.6141 16.9196C20.5859 15.188 17.5578 13.4431 14.5297 11.6983C14.3969 11.6058 14.2508 11.5397 14.0781 11.4603ZM36.9484 11.4471C36.8023 11.5132 36.7227 11.5397 36.6562 11.5793C33.5219 13.377 30.4008 15.1748 27.2664 16.9593C26.9875 17.1179 26.9875 17.3162 26.9875 17.5673C26.9875 21.0438 26.9875 24.5335 26.9875 28.01C26.9875 28.129 26.9875 28.2611 26.9875 28.4462C27.1867 28.3405 27.3195 28.2744 27.4391 28.2083C30.2547 26.5956 33.0438 24.9433 35.8859 23.3835C36.7094 22.9341 36.975 22.445 36.9617 21.5197C36.9086 18.1886 36.9484 14.8575 36.9484 11.4471ZM15.5922 8.82985C15.6852 8.89595 15.725 8.94882 15.7914 8.97526C18.9391 10.7862 22.0867 12.5839 25.2211 14.3949C25.4734 14.5403 25.6328 14.4742 25.8453 14.3552C28.8734 12.6104 31.9016 10.8787 34.9297 9.13388C35.0492 9.06779 35.1688 8.97526 35.3148 8.86951C35.2086 8.7902 35.1555 8.73732 35.0891 8.69767C31.9813 6.91316 28.8602 5.11544 25.7523 3.31771C25.5 3.17231 25.3141 3.19874 25.075 3.34415C22.0602 5.089 19.0453 6.80741 16.0305 8.53905C15.8844 8.63158 15.7516 8.72411 15.5922 8.82985ZM18.3414 38.0032C17.6375 37.3291 16.9602 36.6946 16.2828 36.0469C16.0703 36.9986 15.8578 38.0032 15.6187 39.0872C16.575 38.717 17.4516 38.3601 18.3414 38.0032Z" fill="#FF4A17"/>
</g>
<defs>
<clipPath id="clip0_1736_1643">
<rect width="51" height="43" fill="white"/>
</clipPath>
</defs>
</svg>
