<svg width="13" height="13" viewBox="0 0 13 13" fill="none" xmlns="http://www.w3.org/2000/svg">
<path d="M4.63591 4.48442L4.37586 4.52234L0.962327 5.02L0.961963 5.02005C0.760467 5.04928 0.678339 5.29944 0.825454 5.44269L0.825596 5.44283L3.29521 7.84935L3.48358 8.03291L3.43904 8.29212L2.85499 11.6913C2.85497 11.6914 2.85496 11.6914 2.85495 11.6915C2.82051 11.8938 3.03425 12.0469 3.21205 11.9526L3.21362 11.9518L6.26734 10.3466L6.49998 10.2243L6.73261 10.3466L9.78634 11.9518L9.78642 11.9518C9.96765 12.0471 10.1788 11.8909 10.145 11.6916L4.63591 4.48442ZM4.63591 4.48442L4.75215 4.24873L6.27775 1.15548C6.36741 0.973893 6.63003 0.970173 6.72241 1.15589C6.72246 1.156 6.72251 1.15611 6.72257 1.15621L8.2478 4.24873L8.36405 4.48442L8.6241 4.52234L12.0376 5.02L12.038 5.02005C12.2395 5.04928 12.3216 5.29945 12.1745 5.44269L12.1744 5.44283L9.70475 7.84935L9.51638 8.03291L9.56092 8.29212L10.145 11.6913L4.63591 4.48442Z" stroke="#FF4A17"/>
</svg>
