<svg width="135" height="138" viewBox="0 0 135 138" fill="none" xmlns="http://www.w3.org/2000/svg">
<path d="M19.7109 18.9023L20.707 20.1914L18.8906 22.1836L24.252 29.0977L22.875 30.6211L17.5137 23.707L15.668 25.7285L14.6719 24.4395L19.7109 18.9023Z" fill="white"/>
<path d="M28.0305 24.9082C27.4446 25.0254 26.8586 24.9668 26.302 24.7617C25.7454 24.5566 25.2473 24.1758 24.8372 23.6484C24.2512 22.9453 23.8997 22.1543 23.7532 21.3047C23.6067 20.4551 23.6946 19.6055 23.9876 18.7852C24.2805 17.9648 24.8079 17.2617 25.511 16.6758C26.0383 16.2363 26.6243 15.9434 27.2102 15.8262C27.8254 15.709 28.3821 15.7383 28.9387 15.9727C29.4954 16.1777 29.9934 16.5586 30.4329 17.0566C31.0188 17.7598 31.3997 18.5508 31.5169 19.4297C31.6633 20.2793 31.5754 21.1289 31.2532 21.9492C30.9309 22.7695 30.4329 23.4727 29.7004 24.0586C29.1731 24.498 28.6165 24.791 28.0305 24.9082ZM29.5833 21.334C29.7004 20.8652 29.7004 20.3672 29.5833 19.8691C29.4661 19.3711 29.2317 18.9023 28.9094 18.5215C28.5286 18.082 28.1184 17.8184 27.679 17.7891C27.2102 17.7598 26.8001 17.9062 26.4192 18.1992C26.0383 18.5215 25.7747 18.9023 25.6575 19.3711C25.5403 19.8398 25.5403 20.3086 25.6868 20.8066C25.8333 21.3047 26.0676 21.7734 26.3899 22.1836C26.7708 22.623 27.1516 22.8867 27.5911 22.916C28.0305 22.9746 28.4407 22.8281 28.8215 22.5059C29.2024 22.2129 29.4368 21.832 29.5833 21.334Z" fill="white"/>
<path d="M33.6875 11.4609C33.9805 10.9922 34.3906 10.6113 34.918 10.3184C35.4453 10.0254 35.9727 9.84961 36.5 9.84961C37.0273 9.84961 37.5254 9.9668 37.9941 10.2598C38.4629 10.5527 38.873 10.9922 39.1953 11.5488C39.3418 11.8125 39.4883 12.1055 39.6055 12.3984C39.8984 13.1895 40.0156 13.9805 39.957 14.7422C39.8984 15.5039 39.6934 16.207 39.3418 16.8223C38.9902 17.4375 38.4922 17.9355 37.9062 18.2578C37.3789 18.5508 36.8809 18.6973 36.4121 18.6973C35.9434 18.6973 35.5039 18.5801 35.123 18.375L36.9102 23.1504L35.123 24.2051L30.875 12.8086L32.6621 11.7539L33.0723 12.8672C33.1602 12.3984 33.3652 11.9297 33.6875 11.4609ZM37.5547 12.9551C37.2617 12.457 36.8809 12.1641 36.4414 12.0469C36.002 11.9297 35.5332 12.0176 35.0937 12.2813C34.7715 12.457 34.5078 12.75 34.3027 13.0723C34.0977 13.4238 33.9512 13.8047 33.9219 14.2734C33.8633 14.7129 33.9512 15.1816 34.127 15.6504C34.2148 15.8848 34.3027 16.0605 34.3613 16.1484C34.6543 16.6465 35.0352 16.9395 35.4746 17.0566C35.9141 17.1738 36.3828 17.0859 36.8223 16.8223C37.1445 16.6172 37.4082 16.3535 37.6426 16.002C37.8477 15.6504 37.9941 15.2402 38.0234 14.8008C38.082 14.3613 37.9941 13.8926 37.8184 13.4238C37.7012 13.248 37.6133 13.1016 37.5547 12.9551Z" fill="white"/>
<path d="M49.9766 1.96875L50.2109 3.58008L46.168 4.92773L46.5781 7.62305L49.6543 6.59766L49.8887 8.17969L46.8125 9.23437L47.457 13.5996L45.4941 14.2441L44 3.96094L49.9766 1.96875Z" fill="white"/>
<path d="M55.3652 3.375C55.7754 3.02344 56.2441 2.75977 56.7715 2.67188L56.8594 4.86914L56.332 4.98633C55.7461 5.10352 55.2773 5.33789 54.9844 5.68945C54.6914 6.01172 54.5156 6.50977 54.4863 7.18359L54.6328 11.5781L52.6113 12.0176L52.3477 3.78516L54.3691 3.3457L54.4277 4.81055C54.6621 4.19531 54.9844 3.72656 55.3652 3.375Z" fill="white"/>
<path d="M64.8872 2.70115C65.5317 3.2285 65.9126 3.96092 66.0005 4.92771C66.0298 5.24998 66.0298 5.51365 66.0005 5.77732C65.9712 6.07029 65.9126 6.33396 65.8833 6.53904L59.9653 7.03709C59.9653 7.09568 59.9653 7.21287 59.9653 7.33006C59.9946 7.8281 60.1997 8.20896 60.522 8.47264C60.8442 8.73631 61.2544 8.85349 61.7231 8.7949C62.1333 8.7656 62.4849 8.64842 62.7485 8.44334C63.0415 8.23826 63.2466 7.97459 63.4224 7.68162L65.6196 7.47654C65.3267 8.29685 64.8286 8.97068 64.1255 9.52732C63.4224 10.084 62.5728 10.4062 61.6353 10.4941C60.6099 10.582 59.7603 10.3769 59.0864 9.82029C58.4126 9.29295 58.0317 8.53123 57.9438 7.53514C57.9146 7.24217 57.9146 6.9199 57.9438 6.59764C58.0317 5.74803 58.2661 4.98631 58.647 4.31248C59.0571 3.63865 59.5552 3.11131 60.1997 2.70115C60.8442 2.291 61.5474 2.05662 62.3677 1.99803C63.3931 1.96873 64.2427 2.17381 64.8872 2.70115ZM63.9204 5.1035C63.8911 4.63475 63.686 4.28318 63.3638 4.04881C63.0415 3.81443 62.6313 3.72654 62.1333 3.75584C61.606 3.81443 61.1665 3.99021 60.7856 4.37107C60.4048 4.72264 60.1704 5.19139 60.0532 5.77732L63.9204 5.45506C63.9497 5.27928 63.9497 5.19139 63.9204 5.1035Z" fill="white"/>
<path d="M74.6428 3.02341C75.1994 3.63865 75.4631 4.42966 75.4045 5.36716C75.3752 5.68943 75.3459 5.9531 75.2873 6.18748C75.1994 6.48044 75.1408 6.71482 75.0529 6.94919L69.1349 6.59763C69.1349 6.65623 69.1056 6.77341 69.1056 6.8906C69.0763 7.38865 69.1935 7.7988 69.4865 8.12107C69.7795 8.41404 70.1603 8.58982 70.6291 8.61912C71.0392 8.64841 71.3908 8.56052 71.7131 8.41404C72.0353 8.23826 72.2697 8.03318 72.4748 7.74021L74.6721 7.8574C74.2619 8.61912 73.676 9.23435 72.8849 9.6738C72.0939 10.1426 71.215 10.3183 70.2775 10.2597C69.2521 10.2011 68.4318 9.84959 67.8459 9.23435C67.2599 8.61912 66.9963 7.7988 67.0549 6.80271C67.0842 6.50974 67.1135 6.21677 67.2013 5.89451C67.4064 5.07419 67.7287 4.34177 68.2267 3.72654C68.7248 3.1113 69.3107 2.67185 70.0139 2.37888C70.717 2.08591 71.4494 1.93943 72.2404 1.99802C73.2658 2.08591 74.0568 2.43748 74.6428 3.02341ZM73.3244 5.27927C73.3537 4.81052 73.2365 4.42966 72.9435 4.16599C72.6506 3.87302 72.2697 3.72654 71.7717 3.69724C71.2443 3.66794 70.7756 3.81443 70.3654 4.1074C69.926 4.40037 69.633 4.83982 69.4279 5.39646L73.2951 5.63084C73.3244 5.45505 73.3244 5.33787 73.3244 5.27927Z" fill="white"/>
<path d="M81.2031 0.591797L77.5117 10.9629L75.4609 10.6113L79.1816 0.269531L81.2031 0.591797Z" fill="white"/>
<path d="M82.0239 5.39649C82.6098 4.89844 83.2543 4.57618 83.9574 4.42969C84.6606 4.28321 85.3344 4.28321 86.0082 4.48829C86.5942 4.66407 87.0336 4.92774 87.3852 5.2793C87.7074 5.63086 87.9125 6.01172 88.0004 6.42188L88.5278 5.36719L90.52 5.95313L86.8871 13.3359L84.8949 12.75L85.4223 11.666C85.0121 11.9297 84.5141 12.1348 83.9574 12.2227C83.4008 12.3106 82.8149 12.2813 82.2289 12.1055C81.643 11.9297 81.1742 11.666 80.8227 11.2852C80.4418 10.9043 80.2075 10.4356 80.1196 9.87891C80.0024 9.32227 80.061 8.73633 80.2367 8.1211C80.3246 7.82813 80.4418 7.53516 80.5883 7.24219C80.9692 6.48047 81.4379 5.86524 82.0239 5.39649ZM86.9164 8.53125C87.0629 7.97461 87.0336 7.50586 86.7992 7.09571C86.5649 6.68555 86.2133 6.42188 85.7153 6.2754C85.3637 6.15821 84.9828 6.15821 84.5727 6.2461C84.1918 6.33399 83.811 6.50977 83.4594 6.77344C83.1078 7.03711 82.8149 7.38868 82.6098 7.85743C82.5219 8.03321 82.4633 8.17969 82.434 8.35547C82.2582 8.91211 82.3168 9.41016 82.5219 9.82032C82.727 10.2305 83.1078 10.5234 83.6059 10.6699C83.9575 10.7871 84.3676 10.7871 84.7485 10.6992C85.1293 10.6113 85.5102 10.4356 85.8617 10.1719C86.2133 9.90821 86.5063 9.52735 86.7114 9.0879C86.7992 8.79493 86.8871 8.61914 86.9164 8.53125Z" fill="white"/>
<path d="M98.8125 10.3477C99.0469 10.9629 98.9883 11.666 98.6367 12.3984C98.4902 12.6914 98.373 12.9258 98.1973 13.1309L95.3848 17.0566L93.5391 16.1777L96.1758 12.457C96.2637 12.3105 96.3516 12.1641 96.4395 12.0176C96.6445 11.5781 96.7031 11.1973 96.5566 10.8457C96.4395 10.4941 96.1465 10.2305 95.707 10.0254C95.209 9.79102 94.7109 9.73242 94.2422 9.87891C93.7441 9.99609 93.334 10.3184 92.9531 10.8164L90.2578 14.625L88.3828 13.7461L93.1582 7.03711L95.0332 7.91602L94.4473 8.73633C94.8867 8.56055 95.3555 8.50195 95.8535 8.50195C96.3516 8.53125 96.8203 8.61914 97.2891 8.85352C98.0801 9.26367 98.5781 9.73242 98.8125 10.3477Z" fill="white"/>
<path d="M101.243 13.248C101.976 12.9844 102.708 12.8965 103.44 12.9844C104.202 13.0723 104.876 13.3359 105.521 13.7754C106.341 14.332 106.868 14.9766 107.073 15.709C107.278 16.4414 107.132 17.2031 106.663 17.9941L104.817 16.7637C104.964 16.4414 104.993 16.1191 104.905 15.8262C104.817 15.5332 104.612 15.2695 104.261 15.0352C103.763 14.7129 103.235 14.5957 102.649 14.7129C102.064 14.8301 101.507 15.1816 100.95 15.7383C100.745 15.9434 100.599 16.1191 100.481 16.2656C100.159 16.7344 100.042 17.1445 100.101 17.5547C100.159 17.9648 100.394 18.2871 100.804 18.5508C101.478 19.0195 102.181 19.0488 102.942 18.6387L104.788 19.8691C103.968 20.3965 103.118 20.6309 102.21 20.6602C101.302 20.6602 100.423 20.3965 99.6026 19.8398C98.753 19.2539 98.2256 18.5801 98.0498 17.7305C97.8741 16.9102 98.0498 16.0898 98.6065 15.2695C98.7823 15.0059 98.9873 14.7715 99.2217 14.5371C99.837 13.9512 100.511 13.5117 101.243 13.248Z" fill="white"/>
<path d="M111.73 18.7852L105.402 24.0586L103.82 22.7402L110.148 17.4668L111.73 18.7852ZM111.291 16.7637C111.262 16.5 111.35 16.2656 111.525 16.0312C111.789 15.7383 112.111 15.5625 112.521 15.5625C112.932 15.5332 113.283 15.6504 113.605 15.9141C113.84 16.1191 113.986 16.3535 114.016 16.6172C114.045 16.8809 113.957 17.1152 113.781 17.3496C113.518 17.6426 113.195 17.8184 112.785 17.8477C112.375 17.877 112.023 17.7598 111.73 17.4961C111.467 17.2617 111.32 17.0273 111.291 16.7637Z" fill="white"/>
<path d="M117.77 25.6113C117.77 26.2852 117.477 26.9004 116.861 27.4863C116.627 27.6914 116.422 27.8672 116.187 28.0137L112.145 30.6797L110.738 29.2148L114.547 26.6953C114.693 26.6074 114.84 26.4902 114.957 26.373C115.309 26.0508 115.484 25.6992 115.484 25.3184C115.484 24.9668 115.338 24.6152 114.986 24.2637C114.605 23.8535 114.166 23.6484 113.668 23.5898C113.17 23.5313 112.643 23.6777 112.115 24L108.248 26.5781L106.812 25.084L113.697 20.543L115.133 22.0371L114.283 22.5938C114.752 22.5938 115.221 22.7109 115.689 22.8867C116.158 23.0918 116.539 23.3555 116.891 23.707C117.477 24.3223 117.77 24.9668 117.77 25.6113Z" fill="white"/>
<path d="M123.246 32.4668C123.275 32.9648 123.187 33.375 122.982 33.7266L124.066 33.2578L125.238 34.957L117.679 38.3848C116.976 38.707 116.273 38.8535 115.541 38.8535C114.808 38.8535 114.134 38.6777 113.461 38.3262C112.787 37.9746 112.23 37.4473 111.732 36.7441C111.088 35.8066 110.795 34.8984 110.882 34.0781C110.97 33.2578 111.41 32.584 112.201 32.1152L113.343 33.7852C113.05 34.0195 112.904 34.3418 112.904 34.7227C112.904 35.1035 113.05 35.5137 113.343 35.9238C113.695 36.4219 114.134 36.7441 114.662 36.8906C115.189 37.0371 115.804 36.9785 116.478 36.6855L117.65 36.1582C117.152 36.0996 116.654 35.9238 116.156 35.6602C115.658 35.3965 115.248 35.0156 114.925 34.5176C114.603 34.0195 114.398 33.5215 114.369 32.9648C114.339 32.4375 114.427 31.9102 114.691 31.4121C114.955 30.9141 115.365 30.5039 115.892 30.123C116.156 29.9473 116.42 29.8008 116.742 29.6543C117.504 29.3027 118.265 29.1562 119.027 29.1562C119.789 29.1562 120.492 29.332 121.136 29.6543C121.781 29.9766 122.279 30.416 122.689 31.002C123.011 31.5 123.187 31.998 123.246 32.4668ZM120.785 34.6934C121.254 34.3711 121.547 33.9902 121.605 33.5215C121.693 33.0527 121.576 32.6133 121.283 32.2031C121.078 31.8809 120.785 31.6465 120.433 31.4414C120.082 31.2656 119.672 31.1484 119.232 31.1191C118.793 31.0898 118.353 31.207 117.884 31.4121C117.709 31.5 117.562 31.5879 117.416 31.6758C116.918 31.998 116.654 32.4082 116.566 32.877C116.478 33.3457 116.566 33.7852 116.859 34.1953C117.064 34.5176 117.357 34.752 117.709 34.957C118.06 35.1621 118.47 35.25 118.91 35.25C119.349 35.25 119.789 35.1621 120.257 34.957C120.521 34.8398 120.697 34.752 120.785 34.6934Z" fill="white"/>
<path d="M124.566 48.4922L123.102 44.6836L120.934 44.4492L120.172 42.4277L131.715 43.8926L132.564 46.1191L123.688 51.5391L122.896 49.5176L124.566 48.4922ZM125.973 47.6719L129.752 45.4453L124.889 44.8887L125.973 47.6719Z" fill="white"/>
<path d="M132.913 56.959C132.767 57.4278 132.532 57.7793 132.181 58.0137L133.352 57.9844L133.763 60.0059L125.472 60.211C124.71 60.211 124.007 60.0938 123.333 59.8008C122.659 59.5078 122.102 59.0684 121.634 58.5117C121.165 57.9258 120.843 57.2227 120.667 56.3731C120.433 55.2598 120.52 54.3223 120.931 53.5899C121.341 52.8574 121.985 52.418 122.923 52.3008L123.333 54.293C122.981 54.4102 122.718 54.6445 122.571 54.9961C122.425 55.3477 122.395 55.7871 122.483 56.2852C122.6 56.8711 122.893 57.3399 123.304 57.6914C123.743 58.043 124.329 58.2188 125.061 58.1895L126.35 58.1602C125.911 57.8965 125.53 57.5742 125.179 57.1348C124.827 56.6953 124.593 56.168 124.475 55.582C124.358 54.9961 124.388 54.4395 124.563 53.9414C124.739 53.4434 125.032 53.0039 125.472 52.6524C125.911 52.3008 126.438 52.0664 127.083 51.9199C127.376 51.8613 127.698 51.832 128.02 51.832C128.841 51.8028 129.632 51.9492 130.335 52.2422C131.038 52.5352 131.624 52.9746 132.093 53.502C132.561 54.0586 132.854 54.6738 132.972 55.3477C133.089 55.9629 133.089 56.4903 132.913 56.959ZM129.808 58.043C130.364 57.9258 130.774 57.6621 131.038 57.2813C131.302 56.9004 131.36 56.4317 131.272 55.9336C131.184 55.5528 131.038 55.2305 130.774 54.9082C130.511 54.586 130.188 54.3516 129.808 54.1465C129.397 53.9707 128.958 53.8828 128.46 53.8828C128.284 53.8828 128.108 53.9121 127.933 53.9414C127.347 54.0586 126.936 54.3223 126.673 54.7031C126.409 55.084 126.321 55.5528 126.438 56.0508C126.526 56.4317 126.673 56.7832 126.936 57.0762C127.2 57.3985 127.522 57.6328 127.933 57.8379C128.343 58.0137 128.782 58.1016 129.28 58.1016C129.515 58.0723 129.69 58.0723 129.808 58.043Z" fill="white"/>
<path d="M133.529 68.9414C132.973 69.5859 132.24 69.9082 131.274 69.9375C130.951 69.9375 130.688 69.9375 130.424 69.9082C130.131 69.8496 129.867 69.8203 129.662 69.7617L129.399 63.8438C129.34 63.8438 129.223 63.8438 129.106 63.8438C128.608 63.873 128.197 64.0195 127.934 64.3418C127.67 64.6641 127.524 65.0449 127.553 65.543C127.582 65.9531 127.67 66.3047 127.875 66.5977C128.08 66.8906 128.315 67.125 128.608 67.3008L128.696 69.4981C127.904 69.1758 127.231 68.6484 126.703 67.916C126.176 67.1836 125.883 66.334 125.824 65.3672C125.766 64.3418 126.029 63.4922 126.586 62.8477C127.143 62.2031 127.934 61.8516 128.93 61.793C129.223 61.793 129.545 61.793 129.867 61.8516C130.717 61.9688 131.449 62.2324 132.123 62.6426C132.768 63.082 133.295 63.6094 133.676 64.2539C134.057 64.8984 134.262 65.6309 134.291 66.4512C134.321 67.4766 134.057 68.3262 133.529 68.9414ZM131.156 67.8867C131.625 67.8574 131.977 67.7109 132.24 67.3887C132.504 67.0664 132.592 66.6855 132.592 66.1875C132.563 65.6602 132.387 65.2207 132.035 64.8105C131.684 64.4297 131.244 64.1367 130.658 64.0195L130.834 67.8867C130.981 67.8867 131.098 67.8867 131.156 67.8867Z" fill="white"/>
<path d="M132.883 79.166C132.385 79.6055 131.711 79.7812 130.861 79.6934C130.539 79.6641 130.275 79.6055 130.012 79.5176L125.383 78.1699L125.588 76.1484L129.953 77.4082C130.129 77.4668 130.305 77.4961 130.451 77.4961C130.949 77.5547 131.33 77.4668 131.594 77.2324C131.887 76.998 132.033 76.6465 132.092 76.1777C132.15 75.6211 132.033 75.1523 131.74 74.7422C131.447 74.332 131.008 74.0098 130.422 73.834L125.939 72.5449L126.174 70.4941L134.084 72.7793L133.85 74.8301L132.883 74.5371C133.176 74.918 133.41 75.3281 133.557 75.7969C133.703 76.2656 133.762 76.7637 133.703 77.2617C133.674 78.1113 133.381 78.7266 132.883 79.166Z" fill="white"/>
<path d="M130.953 82.3887C131.451 82.9746 131.773 83.6484 131.949 84.3809C132.125 85.1133 132.096 85.875 131.891 86.6074C131.627 87.5742 131.187 88.2773 130.572 88.7168C129.957 89.1562 129.166 89.2734 128.287 89.0977L128.844 86.959C129.195 86.9883 129.518 86.9297 129.752 86.7246C130.016 86.5488 130.191 86.2559 130.279 85.8457C130.426 85.2891 130.338 84.7324 130.045 84.2344C129.752 83.7363 129.225 83.2969 128.521 82.9746C128.258 82.8574 128.053 82.7695 127.848 82.7109C127.32 82.5644 126.852 82.5937 126.5 82.7695C126.148 82.9453 125.914 83.2969 125.768 83.7656C125.563 84.5566 125.768 85.2305 126.383 85.8164L125.826 87.9551C125.064 87.3691 124.537 86.6367 124.244 85.7578C123.951 84.8789 123.922 83.9707 124.156 83.0332C124.42 82.0371 124.918 81.334 125.621 80.8945C126.354 80.4551 127.174 80.3672 128.141 80.6016C128.434 80.6895 128.727 80.7773 129.049 80.9238C129.811 81.334 130.455 81.8027 130.953 82.3887Z" fill="white"/>
<path d="M129.34 93.6973L123.715 92.4375L127.699 97.5645L126.85 99.5566L118.676 88.3066L119.525 86.3145L122.279 90.1816L130.277 91.5879L129.34 93.6973Z" fill="white"/>
<path d="M117.712 99.2344C117.975 99.1758 118.21 99.2051 118.473 99.3809C118.796 99.586 119.001 99.9082 119.089 100.289C119.147 100.699 119.089 101.051 118.884 101.402C118.708 101.666 118.503 101.842 118.239 101.9C117.975 101.959 117.741 101.9 117.477 101.754C117.155 101.549 116.95 101.227 116.862 100.846C116.774 100.465 116.862 100.084 117.067 99.7324C117.243 99.4688 117.448 99.293 117.712 99.2344Z" fill="white"/>
<path d="M115.221 118.482L114.225 117.193L116.041 115.201L110.68 108.258L112.057 106.734L117.418 113.648L119.264 111.627L120.26 112.916L115.221 118.482Z" fill="white"/>
<path d="M106.899 112.506C107.485 112.389 108.071 112.447 108.627 112.652C109.184 112.857 109.682 113.238 110.092 113.766C110.678 114.469 111.03 115.26 111.176 116.109C111.323 116.959 111.235 117.809 110.942 118.629C110.649 119.449 110.121 120.152 109.418 120.738C108.891 121.178 108.305 121.471 107.719 121.588C107.104 121.705 106.547 121.676 105.991 121.441C105.434 121.236 104.936 120.855 104.496 120.357C103.91 119.654 103.53 118.863 103.412 117.984C103.266 117.135 103.354 116.285 103.676 115.465C103.998 114.645 104.496 113.941 105.229 113.355C105.756 112.916 106.313 112.623 106.899 112.506ZM105.375 116.051C105.258 116.52 105.258 117.018 105.375 117.516C105.492 118.014 105.727 118.482 106.049 118.863C106.43 119.303 106.84 119.566 107.28 119.596C107.719 119.625 108.159 119.479 108.539 119.186C108.92 118.893 109.184 118.482 109.301 118.014C109.418 117.545 109.418 117.076 109.272 116.578C109.125 116.08 108.891 115.611 108.569 115.201C108.188 114.762 107.807 114.498 107.367 114.469C106.928 114.41 106.518 114.557 106.137 114.879C105.756 115.201 105.492 115.582 105.375 116.051Z" fill="white"/>
<path d="M101.276 125.953C100.983 126.422 100.573 126.803 100.046 127.125C99.5186 127.418 98.9912 127.594 98.4639 127.594C97.9365 127.594 97.4385 127.477 96.9697 127.184C96.501 126.891 96.0908 126.451 95.7686 125.895C95.6221 125.631 95.4756 125.338 95.3584 125.045C95.0654 124.254 94.9482 123.463 95.0068 122.701C95.0654 121.939 95.2705 121.236 95.6221 120.621C95.9736 120.006 96.4717 119.508 97.0576 119.186C97.585 118.893 98.083 118.746 98.5518 118.746C99.0205 118.746 99.46 118.863 99.8408 119.068L98.0537 114.293L99.8408 113.238L104.089 124.635L102.302 125.689L101.892 124.576C101.774 125.016 101.569 125.484 101.276 125.953ZM97.4092 124.43C97.7022 124.928 98.083 125.221 98.5225 125.338C98.9619 125.455 99.4307 125.367 99.8701 125.104C100.192 124.928 100.456 124.635 100.661 124.312C100.866 123.961 101.013 123.58 101.042 123.111C101.101 122.672 101.013 122.203 100.837 121.734C100.749 121.5 100.661 121.324 100.603 121.236C100.31 120.738 99.9287 120.445 99.4893 120.328C99.0498 120.211 98.5811 120.299 98.1416 120.562C97.8193 120.768 97.5557 121.031 97.3213 121.383C97.1162 121.734 96.9697 122.145 96.9404 122.584C96.9111 123.023 96.9697 123.492 97.1455 123.961C97.2334 124.137 97.3213 124.313 97.4092 124.43Z" fill="white"/>
<path d="M84.9531 135.416L84.7188 133.805L88.7617 132.457L88.3516 129.762L85.2754 130.787L85.041 129.205L88.1465 128.18L87.502 123.814L89.4648 123.17L90.9883 133.453L84.9531 135.416Z" fill="white"/>
<path d="M79.5644 134.039C79.1543 134.391 78.6855 134.654 78.1582 134.742L78.0703 132.545L78.5977 132.428C79.1836 132.311 79.623 132.076 79.9453 131.725C80.2383 131.402 80.4141 130.904 80.4434 130.23L80.2969 125.836L82.3184 125.396L82.6113 133.629L80.5898 134.068L80.5312 132.604C80.2969 133.219 79.9746 133.688 79.5644 134.039Z" fill="white"/>
<path d="M70.0415 134.713C69.397 134.186 69.0161 133.453 68.9282 132.486C68.8989 132.164 68.8989 131.9 68.9282 131.637C68.9575 131.344 69.0161 131.08 69.0454 130.875L74.9634 130.377C74.9634 130.318 74.9634 130.201 74.9634 130.084C74.9341 129.586 74.729 129.205 74.4067 128.941C74.0845 128.678 73.6743 128.561 73.2056 128.619C72.7954 128.648 72.4438 128.766 72.1802 128.971C71.9165 129.176 71.6821 129.439 71.5063 129.732L69.3091 129.937C69.602 129.117 70.1001 128.443 70.8032 127.887C71.5063 127.33 72.356 127.008 73.2935 126.92C74.3188 126.832 75.1685 127.037 75.8423 127.594C76.5161 128.15 76.897 128.883 76.9849 129.879C77.0142 130.172 77.0142 130.494 76.9849 130.816C76.897 131.666 76.6626 132.428 76.2817 133.102C75.8716 133.775 75.3735 134.303 74.729 134.713C74.0845 135.123 73.3813 135.357 72.561 135.416C71.5356 135.445 70.686 135.24 70.0415 134.713ZM71.0083 132.311C71.0376 132.779 71.2427 133.131 71.5649 133.365C71.8872 133.6 72.2974 133.687 72.7954 133.658C73.3228 133.6 73.7622 133.424 74.1431 133.043C74.5239 132.691 74.7583 132.223 74.8755 131.637L71.0083 131.959C71.0083 132.135 71.0083 132.223 71.0083 132.311Z" fill="white"/>
<path d="M60.2893 134.391C59.7326 133.775 59.4689 132.984 59.5275 132.047C59.5568 131.725 59.5861 131.461 59.6447 131.227C59.7326 130.934 59.7912 130.699 59.8791 130.465L65.7971 130.816C65.7971 130.758 65.8264 130.641 65.8264 130.523C65.8557 130.025 65.7385 129.615 65.4455 129.293C65.1525 129 64.7717 128.824 64.3029 128.795C63.8928 128.766 63.5412 128.854 63.219 129C62.8967 129.176 62.6623 129.381 62.4572 129.674L60.26 129.557C60.6701 128.795 61.2561 128.18 62.0471 127.74C62.8381 127.271 63.717 127.096 64.6545 127.154C65.6799 127.213 66.5002 127.564 67.0861 128.18C67.6721 128.795 67.9357 129.615 67.8772 130.611C67.8479 130.904 67.8186 131.197 67.7307 131.52C67.5256 132.34 67.2033 133.072 66.7053 133.688C66.2072 134.303 65.6213 134.742 64.9182 135.035C64.215 135.328 63.4826 135.475 62.6916 135.416C61.6662 135.328 60.8752 134.977 60.2893 134.391ZM61.6076 132.135C61.5783 132.604 61.6955 132.984 61.9885 133.248C62.2815 133.541 62.6623 133.688 63.1604 133.717C63.6877 133.746 64.1565 133.6 64.5666 133.307C65.0061 133.014 65.299 132.574 65.5041 132.018L61.6369 131.783C61.6369 131.959 61.6076 132.076 61.6076 132.135Z" fill="white"/>
<path d="M53.7266 136.822L57.418 126.451L59.4687 126.803L55.7773 137.174L53.7266 136.822Z" fill="white"/>
<path d="M52.9023 132.047C52.3164 132.545 51.6719 132.867 50.9687 133.014C50.2656 133.16 49.5918 133.16 48.918 132.955C48.332 132.779 47.8926 132.516 47.541 132.164C47.2187 131.812 47.0137 131.432 46.9258 131.021L46.3984 132.076L44.4062 131.49L48.0391 124.107L50.0312 124.693L49.5039 125.777C49.9141 125.514 50.4121 125.309 50.9687 125.221C51.5254 125.133 52.1113 125.162 52.6973 125.338C53.2832 125.514 53.752 125.777 54.1035 126.158C54.4844 126.539 54.7188 127.008 54.8066 127.564C54.9238 128.121 54.8652 128.707 54.6895 129.322C54.6016 129.615 54.4844 129.908 54.3379 130.201C53.9863 130.934 53.4883 131.549 52.9023 132.047ZM48.0098 128.912C47.8633 129.469 47.8926 129.937 48.127 130.348C48.3613 130.758 48.7129 131.021 49.2109 131.168C49.5625 131.285 49.9434 131.285 50.3535 131.197C50.7344 131.109 51.1152 130.934 51.4668 130.67C51.8184 130.406 52.1113 130.055 52.3164 129.586C52.4043 129.41 52.4629 129.264 52.4922 129.088C52.668 128.531 52.6094 128.033 52.4043 127.623C52.1699 127.213 51.8184 126.92 51.3203 126.773C50.9687 126.656 50.5586 126.656 50.1777 126.744C49.7676 126.832 49.416 127.008 49.0645 127.271C48.7129 127.535 48.4199 127.916 48.2148 128.355C48.127 128.619 48.0391 128.795 48.0098 128.912Z" fill="white"/>
<path d="M36.1172 127.066C35.8828 126.451 35.9414 125.748 36.293 125.016C36.4395 124.723 36.5566 124.488 36.7324 124.283L39.5449 120.357L41.3906 121.236L38.7539 124.957C38.666 125.104 38.5781 125.25 38.4902 125.396C38.2852 125.836 38.2266 126.217 38.373 126.568C38.4902 126.92 38.7832 127.184 39.2227 127.389C39.7207 127.623 40.2188 127.682 40.6875 127.535C41.1855 127.418 41.5957 127.096 41.9766 126.598L44.6719 122.789L46.5469 123.668L41.7715 130.377L39.8965 129.498L40.4824 128.678C40.043 128.854 39.5742 128.912 39.0762 128.912C38.5781 128.883 38.1094 128.795 37.6406 128.561C36.8496 128.15 36.3516 127.682 36.1172 127.066Z" fill="white"/>
<path d="M33.7143 124.166C32.9819 124.43 32.2494 124.518 31.517 124.43C30.7553 124.342 30.0815 124.078 29.4369 123.639C28.6166 123.082 28.0893 122.437 27.8842 121.705C27.6791 120.973 27.8256 120.211 28.2651 119.42L30.1108 120.65C29.9643 120.973 29.935 121.295 30.0229 121.588C30.1108 121.881 30.3158 122.145 30.6674 122.379C31.1654 122.701 31.6928 122.818 32.2787 122.701C32.8647 122.584 33.4213 122.232 33.9779 121.676C34.183 121.471 34.3295 121.295 34.4467 121.148C34.769 120.68 34.8862 120.27 34.8276 119.859C34.769 119.449 34.5346 119.127 34.1244 118.863C33.4506 118.395 32.7475 118.365 31.9858 118.775L30.1401 117.545C30.9604 117.018 31.81 116.783 32.7182 116.754C33.6264 116.754 34.5053 117.018 35.3256 117.574C36.1752 118.16 36.7026 118.834 36.8783 119.684C37.0541 120.504 36.8783 121.324 36.3217 122.145C36.1459 122.408 35.9408 122.643 35.7065 122.877C35.0912 123.463 34.4174 123.902 33.7143 124.166Z" fill="white"/>
<path d="M23.6364 120.65C23.6657 120.914 23.5778 121.148 23.402 121.383C23.1384 121.676 22.8161 121.852 22.4059 121.852C21.9958 121.881 21.6442 121.764 21.322 121.5C21.0876 121.295 20.9411 121.061 20.9118 120.797C20.8825 120.533 20.9704 120.299 21.1462 120.064C21.4098 119.771 21.7321 119.596 22.1423 119.566C22.5524 119.537 22.904 119.654 23.197 119.918C23.4899 120.152 23.6071 120.387 23.6364 120.65ZM23.197 118.658L29.5251 113.385L31.1071 114.703L24.779 119.977L23.197 118.658Z" fill="white"/>
<path d="M17.1641 111.803C17.1641 111.129 17.457 110.514 18.0723 109.928C18.3066 109.723 18.5117 109.547 18.7461 109.4L22.7891 106.734L24.1953 108.199L20.3867 110.719C20.2402 110.807 20.0937 110.924 19.9766 111.041C19.625 111.363 19.4492 111.715 19.4492 112.096C19.4492 112.447 19.5957 112.799 19.9473 113.15C20.3281 113.561 20.7676 113.766 21.2656 113.824C21.7637 113.883 22.291 113.736 22.8184 113.414L26.6855 110.836L28.1211 112.33L21.2363 116.871L19.8008 115.377L20.6504 114.82C20.1816 114.82 19.7129 114.703 19.2441 114.527C18.7754 114.322 18.3945 114.059 18.043 113.707C17.457 113.092 17.1934 112.477 17.1641 111.803Z" fill="white"/>
<path d="M11.7109 104.947C11.6816 104.449 11.7695 104.039 11.9746 103.688L10.8906 104.156L9.71875 102.457L17.2773 99.0293C17.9805 98.707 18.6836 98.5605 19.416 98.5605C20.1484 98.5605 20.8223 98.7363 21.4961 99.0879C22.1699 99.4395 22.7266 99.9668 23.2246 100.67C23.8691 101.607 24.1621 102.516 24.0742 103.336C23.9863 104.156 23.5469 104.83 22.7559 105.299L21.6133 103.629C21.9062 103.395 22.0527 103.072 22.0527 102.691C22.0527 102.311 21.9062 101.9 21.6133 101.49C21.2617 100.992 20.8223 100.67 20.2949 100.523C19.7676 100.377 19.1523 100.436 18.4785 100.729L17.3066 101.256C17.8047 101.314 18.3027 101.49 18.8008 101.754C19.2988 102.018 19.709 102.398 20.0312 102.896C20.3535 103.395 20.5586 103.893 20.5879 104.449C20.6172 104.977 20.5293 105.504 20.2656 106.002C20.002 106.5 19.5918 106.91 19.0645 107.291C18.8008 107.467 18.5371 107.613 18.2148 107.76C17.4531 108.111 16.6914 108.258 15.9297 108.258C15.168 108.258 14.4648 108.082 13.8203 107.76C13.1758 107.437 12.6777 106.998 12.2676 106.412C11.9453 105.914 11.7402 105.445 11.7109 104.947ZM14.1426 102.721C13.6738 103.043 13.3809 103.424 13.3223 103.893C13.2637 104.361 13.3516 104.801 13.6445 105.211C13.8496 105.533 14.1426 105.768 14.4941 105.973C14.8457 106.148 15.2559 106.266 15.6953 106.295C16.1348 106.324 16.5742 106.207 17.043 106.002C17.2188 105.914 17.3652 105.826 17.5117 105.738C18.0098 105.416 18.2734 105.006 18.3613 104.537C18.4492 104.068 18.3613 103.629 18.0684 103.219C17.8633 102.896 17.5703 102.662 17.2187 102.457C16.8672 102.252 16.457 102.164 16.0176 102.164C15.5781 102.164 15.1387 102.252 14.6699 102.457C14.4063 102.574 14.2598 102.662 14.1426 102.721Z" fill="white"/>
<path d="M10.3652 88.9219L11.8301 92.7305L13.998 92.9648L14.7598 94.9863L3.2168 93.5508L2.36719 91.3242L11.2441 85.9043L12.0352 87.9258L10.3652 88.9219ZM8.95898 89.7422L5.17969 91.9687L10.043 92.5254L8.95898 89.7422Z" fill="white"/>
<path d="M2.01367 80.4844C2.16016 80.0156 2.39453 79.6641 2.74609 79.4297L1.57422 79.459L1.16406 77.4375L9.45508 77.2031C10.2168 77.2031 10.9199 77.3203 11.5938 77.6133C12.2676 77.9062 12.8242 78.3457 13.293 78.9023C13.7617 79.4883 14.084 80.1914 14.2598 81.041C14.4941 82.1543 14.4062 83.0918 13.9961 83.8242C13.5859 84.5566 12.9414 84.9961 12.0039 85.1133L11.5938 83.1211C11.9453 83.0039 12.209 82.7695 12.3555 82.418C12.502 82.0664 12.5312 81.627 12.4434 81.1289C12.3262 80.543 12.0332 80.0742 11.623 79.7227C11.1836 79.3711 10.5977 79.1953 9.86523 79.2246L8.57617 79.2539C9.01562 79.5176 9.39648 79.8398 9.74805 80.2793C10.0996 80.7187 10.334 81.2461 10.4512 81.832C10.5684 82.418 10.5391 82.9746 10.3633 83.4727C10.1875 83.9707 9.89453 84.4102 9.45508 84.7617C9.01562 85.1133 8.48828 85.3477 7.84375 85.4941C7.55078 85.5527 7.22852 85.582 6.90625 85.582C6.08594 85.6113 5.29492 85.4648 4.5918 85.1719C3.88867 84.8789 3.30273 84.4395 2.83398 83.9121C2.36523 83.3555 2.07227 82.7695 1.92578 82.0664C1.83789 81.4805 1.86719 80.9531 2.01367 80.4844ZM5.11914 79.4004C4.5625 79.5176 4.15234 79.7813 3.88867 80.1621C3.625 80.543 3.56641 81.0117 3.6543 81.5098C3.74219 81.8906 3.88867 82.2129 4.15234 82.5352C4.41602 82.8574 4.73828 83.0918 5.11914 83.2969C5.5293 83.4727 5.96875 83.5605 6.4668 83.5605C6.64258 83.5605 6.81836 83.5312 6.99414 83.502C7.58008 83.3848 7.99023 83.1211 8.25391 82.7402C8.51758 82.3594 8.60547 81.8906 8.48828 81.3926C8.40039 81.0117 8.25391 80.6602 7.99023 80.3672C7.72656 80.0449 7.4043 79.8106 6.99414 79.6055C6.58398 79.4297 6.14453 79.3418 5.64648 79.3418C5.41211 79.3418 5.23633 79.3711 5.11914 79.4004Z" fill="white"/>
<path d="M1.40064 68.4727C1.95728 67.8281 2.6897 67.5059 3.6565 67.4766C3.97876 67.4766 4.24243 67.4766 4.50611 67.5059C4.79907 67.5645 5.06275 67.5937 5.26783 67.6523L5.5315 73.5703C5.59009 73.5703 5.70728 73.5703 5.82447 73.5703C6.32251 73.541 6.73267 73.3945 6.99634 73.0723C7.26001 72.75 7.4065 72.3691 7.3772 71.8711C7.3479 71.4609 7.26001 71.1094 7.05493 70.8164C6.84986 70.5234 6.61548 70.2891 6.32251 70.1133L6.23462 67.916C7.02564 68.2383 7.69947 68.7656 8.22681 69.498C8.75415 70.2305 9.04712 71.0801 9.10571 72.0469C9.16431 73.0723 8.90064 73.9219 8.344 74.5664C7.78736 75.2109 6.99634 75.5625 6.00025 75.6211C5.70728 75.6211 5.38501 75.6211 5.06275 75.5625C4.21314 75.4453 3.48072 75.1816 2.80689 74.7715C2.16236 74.332 1.63501 73.8047 1.25415 73.1602C0.873294 72.5156 0.668217 71.7832 0.63892 70.9629C0.609623 69.9375 0.873294 69.1172 1.40064 68.4727ZM3.77368 69.5566C3.30493 69.5859 2.95337 69.7324 2.6897 70.0547C2.42603 70.377 2.33814 70.7578 2.33814 71.2559C2.36743 71.7832 2.54322 72.2227 2.89478 72.6328C3.24634 73.0137 3.68579 73.3066 4.27173 73.4238L4.09595 69.5566C3.94947 69.5566 3.83228 69.5273 3.77368 69.5566Z" fill="white"/>
<path d="M2.04492 58.248C2.54297 57.8086 3.2168 57.6328 4.06641 57.7207C4.38867 57.75 4.65234 57.8086 4.91602 57.8965L9.54492 59.2441L9.33984 61.2656L4.97461 60.0059C4.79883 59.9473 4.62305 59.918 4.47656 59.918C3.97852 59.8594 3.59766 59.9473 3.33398 60.1816C3.04102 60.416 2.89453 60.7676 2.83594 61.2363C2.77734 61.793 2.89453 62.2617 3.1875 62.6719C3.48047 63.082 3.91992 63.4043 4.50586 63.5801L8.98828 64.8691L8.75391 66.9199L0.84375 64.6348L1.07813 62.584L2.04492 62.877C1.75195 62.4961 1.51758 62.0859 1.37109 61.6172C1.22461 61.1484 1.16602 60.6504 1.22461 60.1523C1.25391 59.3027 1.54688 58.6875 2.04492 58.248Z" fill="white"/>
<path d="M3.9787 55.0254C3.48066 54.4395 3.15839 53.7656 2.98261 53.0332C2.80683 52.3008 2.83612 51.5391 3.0412 50.8067C3.30487 49.8399 3.74433 49.1367 4.35956 48.6973C4.9748 48.2578 5.76581 48.1406 6.64472 48.3164L6.08808 50.4551C5.73651 50.4258 5.41425 50.4844 5.17987 50.6895C4.9162 50.8653 4.74042 51.1582 4.65253 51.5684C4.50605 52.125 4.59394 52.6817 4.88691 53.1797C5.17987 53.6778 5.70722 54.1172 6.41034 54.4395C6.67401 54.5567 6.87909 54.6446 7.08417 54.7031C7.61152 54.8496 8.08026 54.8203 8.43183 54.6446C8.78339 54.4688 9.01776 54.1172 9.16425 53.6485C9.36933 52.8574 9.16425 52.1836 8.54901 51.5977L9.10565 49.459C9.86737 50.0449 10.3947 50.7774 10.6877 51.6563C10.9807 52.5059 11.01 53.4434 10.7756 54.3809C10.5119 55.377 10.0139 56.0801 9.31073 56.5196C8.60761 56.959 7.758 57.0469 6.7912 56.8125C6.49823 56.7246 6.20526 56.6367 5.883 56.4903C5.12128 56.1094 4.47675 55.6114 3.9787 55.0254Z" fill="white"/>
<path d="M5.56055 43.7461L11.2148 44.9766L7.23047 39.8496L8.08008 37.8574L16.2539 49.1074L15.4043 51.0996L12.6797 47.2617L4.65234 45.8555L5.56055 43.7461Z" fill="white"/>
<path d="M17.2227 38.1797C16.959 38.2383 16.7247 38.209 16.461 38.0332C16.1387 37.8281 15.9336 37.5059 15.8458 37.125C15.7872 36.7148 15.8458 36.3633 16.0508 36.0117C16.2266 35.748 16.4317 35.5723 16.6954 35.5137C16.959 35.4551 17.1934 35.5137 17.4571 35.6601C17.7793 35.8652 17.9844 36.1875 18.0723 36.5684C18.1602 36.9785 18.0723 37.3301 17.8672 37.6816C17.6915 37.9453 17.4864 38.1211 17.2227 38.1797Z" fill="white"/>
</svg>
