<svg width="126" height="89" viewBox="0 0 126 89" fill="none" xmlns="http://www.w3.org/2000/svg">
<path d="M86.5895 15.7607H81.2124V47.7451H86.5895V15.7607Z" fill="#E5E5E4"/>
<path d="M54.6051 15.7607H49.228V47.7451H54.6051V15.7607Z" fill="#E5E5E4"/>
<path d="M62.5781 2.41064V7.78773H91.874V53.1221H75.9281V27.5346L85.7552 17.6148L83.901 15.7606H80.1L70.551 25.3096V58.4065H97.251V2.41064H62.5781Z" fill="#E5E5E4"/>
<path d="M27.9052 2.41064V58.4065H33.2822V7.78773H59.8895V53.1221H43.9437V27.5346L53.7708 17.6148L51.9166 15.7606H48.1156L38.5666 25.3096V58.4065H65.2666V2.41064H27.9052Z" fill="#E5E5E4"/>
<path d="M7.60207 76.1139C6.86041 75.7431 6.30416 75.1868 5.93333 74.5379C5.56249 73.8889 5.37708 73.1472 5.37708 72.3129C5.37708 71.4785 5.56249 70.7368 5.93333 70.0879C6.30416 69.4389 6.86041 68.8826 7.60207 68.5118C8.34374 68.141 9.08541 67.9556 10.0125 67.9556C10.8469 67.9556 11.5885 68.141 12.1448 68.4191C12.7937 68.6972 13.35 69.1608 13.7208 69.6243L11.9594 71.2004C11.4031 70.5514 10.8469 70.1806 10.1052 70.1806C9.54895 70.1806 9.08541 70.366 8.71457 70.7368C8.34374 71.1076 8.15833 71.6639 8.15833 72.2201C8.15833 72.8691 8.34374 73.3326 8.71457 73.7035C9.08541 74.0743 9.54895 74.2597 10.1052 74.2597C10.8469 74.2597 11.4031 73.8889 11.9594 73.2399L13.7208 74.816C13.35 75.3722 12.7937 75.7431 12.1448 76.0212C11.4958 76.2993 10.7542 76.4847 10.0125 76.4847C9.08541 76.6701 8.34374 76.4847 7.60207 76.1139Z" fill="#E5E5E4"/>
<path d="M18.1709 74.3526H17.4292V76.4849H14.6479V68.1411H18.5417C19.2834 68.1411 20.025 68.2338 20.5813 68.5119C21.1375 68.7901 21.6011 69.1609 21.8792 69.6244C22.1573 70.088 22.3427 70.6442 22.3427 71.2932C22.3427 71.8494 22.25 72.4057 21.9719 72.8692C21.6938 73.3328 21.3229 73.7036 20.7667 73.889L22.5282 76.4849H19.5615L18.1709 74.3526ZM19.2834 70.5515C19.0979 70.3661 18.8198 70.2734 18.449 70.2734H17.4292V72.2203H18.449C18.8198 72.2203 19.0979 72.1276 19.2834 71.9422C19.4688 71.7567 19.5615 71.5713 19.5615 71.2005C19.5615 70.9224 19.4688 70.7369 19.2834 70.5515Z" fill="#E5E5E4"/>
<path d="M30.4083 74.3526V76.4849H23.4552V68.1411H30.2229V70.2734H26.2365V71.2932H29.7594V73.2401H26.2365V74.3526H30.4083Z" fill="#E5E5E4"/>
<path d="M37.176 75.0015H34.024L33.375 76.4849H30.5938L34.2094 68.1411H36.9906L40.6063 76.4849H37.7323L37.176 75.0015ZM36.3417 72.9619L35.5073 70.8297L34.6729 72.9619H36.3417Z" fill="#E5E5E4"/>
<path d="M42.4605 70.2733H40.05V68.0483H47.7448V70.2733H45.3344V76.3921H42.5532V70.2733H42.4605Z" fill="#E5E5E4"/>
<path d="M48.4865 68.1411H51.2677V76.4849H48.4865V68.1411Z" fill="#E5E5E4"/>
<path d="M61.5583 68.1411L58.0354 76.4849H55.2541L51.7312 68.1411H54.7906L56.7375 73.0547L58.777 68.1411H61.5583Z" fill="#E5E5E4"/>
<path d="M68.7896 74.3526V76.4849H61.8364V68.1411H68.6041V70.2734H64.6177V71.2932H68.1406V73.2401H64.6177V74.3526H68.7896Z" fill="#E5E5E4"/>
<path d="M74.074 68.1411H77.4115C78.2458 68.1411 79.0802 68.3265 79.7292 68.6974C80.3781 69.0682 80.9344 69.5317 81.3052 70.1807C81.6761 70.8297 81.8615 71.5713 81.8615 72.313C81.8615 73.1474 81.6761 73.7963 81.3052 74.4453C80.9344 75.0942 80.3781 75.5578 79.7292 75.9286C79.0802 76.2994 78.2458 76.4849 77.4115 76.4849H74.074V68.1411ZM77.3188 75.9286C78.0604 75.9286 78.8021 75.7432 79.3583 75.4651C79.9146 75.1869 80.3781 74.7234 80.749 74.1672C81.0271 73.6109 81.2125 72.9619 81.2125 72.313C81.2125 71.5713 81.0271 71.0151 80.749 70.4588C80.4708 69.9026 80.0073 69.439 79.3583 69.1609C78.7094 68.8828 78.1531 68.6047 77.3188 68.6047H74.6302V75.8359H77.3188V75.9286Z" fill="#E5E5E4"/>
<path d="M89.6489 75.9286V76.4849H83.901V68.1411H89.4635V68.6047H84.4572V71.8494H89V72.4057H84.55V75.8359H89.6489V75.9286Z" fill="#E5E5E4"/>
<path d="M92.3375 76.2065C91.7812 76.0211 91.3177 75.743 91.0396 75.3722L91.3177 74.9086C91.5958 75.1868 91.9666 75.4649 92.5229 75.6503C92.9864 75.8357 93.5427 75.9284 94.0989 75.9284C94.9333 75.9284 95.4896 75.743 95.8604 75.4649C96.2312 75.1868 96.5093 74.7232 96.5093 74.2597C96.5093 73.8888 96.4166 73.6107 96.2312 73.3326C96.0458 73.0545 95.7677 72.9618 95.3968 72.7763C95.1187 72.6836 94.6552 72.4982 94.0989 72.4055C93.45 72.2201 92.9864 72.1274 92.6156 71.942C92.2448 71.7565 91.9666 71.5711 91.6885 71.293C91.4104 71.0149 91.3177 70.5513 91.3177 70.0878C91.3177 69.717 91.4104 69.3461 91.5958 68.9753C91.7812 68.6045 92.1521 68.3263 92.6156 68.1409C93.0791 67.9555 93.6354 67.8628 94.2843 67.8628C94.7479 67.8628 95.2114 67.9555 95.675 68.0482C96.1385 68.1409 96.5093 68.3263 96.7875 68.6045L96.6021 69.068C96.2312 68.8826 95.8604 68.6972 95.4896 68.5118C95.1187 68.419 94.6552 68.3263 94.2843 68.3263C93.5427 68.3263 92.8937 68.5118 92.5229 68.7899C92.1521 69.068 91.9666 69.5315 91.9666 69.9951C91.9666 70.3659 92.0593 70.644 92.2448 70.9222C92.4302 71.1076 92.7083 71.293 93.0791 71.4784C93.3573 71.5711 93.8208 71.7565 94.3771 71.8493C95.026 72.0347 95.4896 72.1274 95.8604 72.3128C96.2312 72.4982 96.5093 72.6836 96.7875 72.9618C97.0656 73.2399 97.1583 73.6107 97.1583 74.167C97.1583 74.5378 97.0656 74.9086 96.7875 75.2795C96.6021 75.6503 96.2312 75.8357 95.7677 76.1138C95.3041 76.2993 94.7479 76.392 94.0989 76.392C93.45 76.4847 92.8937 76.392 92.3375 76.2065Z" fill="#E5E5E4"/>
<path d="M99.1979 68.1411H99.8468V76.4849H99.1979V68.1411Z" fill="#E5E5E4"/>
<path d="M108.654 72.3126H109.21V75.4647C108.84 75.8355 108.376 76.1136 107.913 76.299C107.449 76.4844 106.8 76.5771 106.244 76.5771C105.409 76.5771 104.668 76.3917 104.019 76.0209C103.37 75.6501 102.814 75.1865 102.443 74.5376C102.072 73.8886 101.886 73.1469 101.886 72.4053C101.886 71.5709 102.072 70.9219 102.443 70.273C102.814 69.624 103.37 69.1605 104.019 68.7896C104.668 68.4188 105.409 68.2334 106.244 68.2334C106.893 68.2334 107.449 68.3261 107.913 68.5115C108.376 68.6969 108.84 68.9751 109.21 69.3459L108.84 69.7167C108.469 69.3459 108.098 69.1605 107.634 68.9751C107.171 68.7897 106.707 68.6969 106.244 68.6969C105.502 68.6969 104.853 68.8824 104.297 69.1605C103.741 69.4386 103.277 69.9021 102.906 70.4584C102.535 71.0146 102.443 71.6636 102.443 72.3126C102.443 72.9615 102.628 73.6105 102.906 74.1667C103.184 74.723 103.648 75.1865 104.297 75.4647C104.853 75.7428 105.502 75.9282 106.244 75.9282C107.171 75.9282 108.005 75.6501 108.654 75.1865V72.3126Z" fill="#E5E5E4"/>
<path d="M118.667 68.1411V76.4849H118.203L112.548 69.2536V76.4849H111.899V68.1411H112.455L118.11 75.3724V68.1411H118.667Z" fill="#E5E5E4"/>
<path d="M26.2365 82.9744H24.8458V82.6035H27.9979V82.9744H26.6073V86.59H26.2365V82.9744Z" fill="#E5E5E4"/>
<path d="M31.8917 85.5702H29.6667L29.2032 86.59H28.7396L30.5011 82.6035H30.8719L32.6334 86.59H32.1698L31.8917 85.5702ZM31.7063 85.1994L30.7792 83.0671L29.8521 85.1994H31.7063Z" fill="#E5E5E4"/>
<path d="M37.0834 84.643H37.4542V86.1264C37.2688 86.3118 37.0834 86.4045 36.8052 86.4972C36.5271 86.5899 36.249 86.5899 35.9709 86.5899C35.6 86.5899 35.2292 86.4972 34.9511 86.3118C34.6729 86.1264 34.3948 85.941 34.2094 85.5701C34.024 85.292 33.9313 84.9212 33.9313 84.5503C33.9313 84.1795 34.024 83.8087 34.2094 83.5305C34.3948 83.2524 34.6729 82.9743 34.9511 82.7889C35.2292 82.6035 35.6 82.5107 36.0636 82.5107C36.3417 82.5107 36.6198 82.6034 36.8979 82.6962C37.1761 82.7889 37.3615 82.9743 37.5469 83.1597L37.2688 83.4378C36.9907 83.1597 36.5271 82.9743 36.0636 82.9743C35.7854 82.9743 35.4146 83.067 35.2292 83.1597C34.9511 83.3451 34.7657 83.5305 34.5802 83.716C34.3948 83.9941 34.3948 84.2722 34.3948 84.5503C34.3948 84.8284 34.4875 85.1066 34.5802 85.3847C34.7657 85.6628 34.9511 85.8482 35.1365 85.9409C35.4146 86.1264 35.6927 86.1264 35.9709 86.1264C36.3417 86.1264 36.7125 86.0337 36.9907 85.8482V84.643H37.0834Z" fill="#E5E5E4"/>
<path d="M39.5864 82.6035H39.9573V86.2191H42.1823V86.59H39.5864V82.6035Z" fill="#E5E5E4"/>
<path d="M43.7583 82.6035H44.1291V86.59H43.7583V82.6035Z" fill="#E5E5E4"/>
<path d="M49.6916 82.6035V86.59H49.3208L46.8177 83.4379V86.59H46.3541V82.6035H46.725L49.2281 85.7556V82.6035H49.6916Z" fill="#E5E5E4"/>
<path d="M54.6052 86.2191V86.59H51.824V82.6035H54.5125V82.9744H52.1948V84.365H54.2344V84.7358H52.1948V86.2191H54.6052Z" fill="#E5E5E4"/>
<path d="M61.651 84.643H62.0218V86.1264C61.8364 86.3118 61.651 86.4045 61.3729 86.4972C61.0947 86.5899 60.8166 86.5899 60.5385 86.5899C60.1677 86.5899 59.7968 86.4972 59.5187 86.3118C59.2406 86.1264 58.9624 85.941 58.777 85.5701C58.5916 85.292 58.4989 84.9212 58.4989 84.5503C58.4989 84.1795 58.5916 83.8087 58.777 83.5305C58.9624 83.2524 59.2406 82.9743 59.5187 82.7889C59.7968 82.6035 60.1677 82.5107 60.6312 82.5107C60.9093 82.5107 61.1874 82.6034 61.4656 82.6962C61.7437 82.7889 61.9291 82.9743 62.1145 83.1597L61.8364 83.4378C61.5583 83.1597 61.0947 82.9743 60.6312 82.9743C60.3531 82.9743 59.9822 83.067 59.7968 83.1597C59.5187 83.3451 59.3333 83.5305 59.1479 83.716C58.9624 83.9941 58.9624 84.2722 58.9624 84.5503C58.9624 84.8284 59.0552 85.1066 59.1479 85.3847C59.3333 85.6628 59.5187 85.8482 59.7041 85.9409C59.9822 86.1264 60.2604 86.1264 60.5385 86.1264C60.9093 86.1264 61.2802 86.0337 61.5583 85.8482V84.643H61.651Z" fill="#E5E5E4"/>
<path d="M64.8031 86.3118C64.525 86.1264 64.2469 85.941 64.0614 85.5701C63.876 85.292 63.7833 84.9212 63.7833 84.5503C63.7833 84.1795 63.876 83.8087 64.0614 83.5305C64.2469 83.2524 64.525 82.9743 64.8031 82.7889C65.0812 82.6035 65.4521 82.5107 65.8229 82.5107C66.1937 82.5107 66.5646 82.6035 66.8427 82.7889C67.1208 82.9743 67.3989 83.1597 67.5844 83.5305C67.7698 83.9014 67.8625 84.1795 67.8625 84.5503C67.8625 84.9212 67.7698 85.292 67.5844 85.5701C67.3989 85.8482 67.1208 86.1264 66.8427 86.3118C66.5646 86.4972 66.1937 86.5899 65.8229 86.5899C65.4521 86.5899 65.0812 86.4972 64.8031 86.3118ZM66.75 86.0337C67.0281 85.8482 67.2135 85.6628 67.3062 85.4774C67.4917 85.1993 67.4917 84.9212 67.4917 84.643C67.4917 84.3649 67.3989 84.0868 67.3062 83.8087C67.1208 83.5305 66.9354 83.3451 66.75 83.2524C66.4719 83.067 66.1937 83.067 65.9156 83.067C65.6375 83.067 65.3594 83.1597 65.0812 83.2524C64.8031 83.4378 64.6177 83.6232 64.525 83.8087C64.3396 84.0868 64.3396 84.3649 64.3396 84.643C64.3396 84.9212 64.4323 85.1993 64.525 85.4774C64.7104 85.7555 64.8958 85.941 65.0812 86.0337C65.2667 86.2191 65.5448 86.2191 65.8229 86.2191C66.101 86.2191 66.4719 86.2191 66.75 86.0337Z" fill="#E5E5E4"/>
<path d="M72.5906 86.2191V86.59H69.8093V82.6035H72.4979V82.9744H70.1802V84.365H72.2197V84.7358H70.1802V86.2191H72.5906Z" fill="#E5E5E4"/>
<path d="M74.7229 86.4974C74.4448 86.4047 74.2594 86.312 74.074 86.1266L74.2594 85.8484C74.4448 86.0338 74.6302 86.1266 74.8156 86.2193C75.0938 86.312 75.2792 86.312 75.5573 86.312C75.9281 86.312 76.2063 86.2193 76.3917 86.1266C76.5771 86.0339 76.6698 85.8484 76.6698 85.663C76.6698 85.4776 76.5771 85.3849 76.4844 85.2922C76.3917 85.1995 76.299 85.1068 76.1136 85.1068C75.9281 85.0141 75.7427 85.0141 75.5573 84.9213C75.2792 84.8286 75.0011 84.7359 74.8156 84.7359C74.6302 84.6432 74.4448 84.5505 74.3521 84.4578C74.2594 84.2724 74.1667 84.087 74.1667 83.9016C74.1667 83.7161 74.2594 83.5307 74.3521 83.3453C74.4448 83.1599 74.6302 83.0672 74.8156 82.9745C75.0011 82.8818 75.2792 82.7891 75.65 82.7891C75.8354 82.7891 76.1136 82.7891 76.299 82.8818C76.4844 82.9745 76.6698 83.0672 76.8552 83.1599L76.6698 83.5307C76.4844 83.438 76.299 83.3453 76.1136 83.2526C75.9281 83.1599 75.7427 83.1599 75.5573 83.1599C75.1865 83.1599 74.9083 83.2526 74.8156 83.3453C74.6302 83.438 74.5375 83.6234 74.5375 83.9016C74.5375 84.087 74.6302 84.1797 74.7229 84.2724C74.8156 84.3651 74.9083 84.4578 75.0938 84.4578C75.2792 84.5505 75.4646 84.5505 75.65 84.6432C75.9281 84.7359 76.2063 84.8286 76.3917 84.8286C76.5771 84.9214 76.7625 85.0141 76.8552 85.1068C76.9479 85.1068 76.9479 85.2922 76.9479 85.5703C76.9479 85.7557 76.8552 85.9411 76.7625 86.1266C76.6698 86.312 76.4844 86.4047 76.299 86.4974C76.1136 86.5901 75.8354 86.6828 75.4646 86.6828C75.1865 86.5901 74.9083 86.5901 74.7229 86.4974Z" fill="#E5E5E4"/>
<path d="M84.4573 82.6035V86.59H84.0865V84.7358H81.5834V86.59H81.2125V82.6035H81.5834V84.365H84.0865V82.6035H84.4573Z" fill="#E5E5E4"/>
<path d="M89.4635 86.2191V86.59H86.6823V82.6035H89.3708V82.9744H87.0531V84.365H89.0927V84.7358H87.0531V86.2191H89.4635Z" fill="#E5E5E4"/>
<path d="M94.0062 86.5899L93.0792 85.292C92.9864 85.292 92.8937 85.292 92.801 85.292H91.7812V86.4972H91.4104V82.5107H92.8937C93.3573 82.5107 93.8208 82.6035 94.0989 82.8816C94.3771 83.1597 94.5625 83.4378 94.5625 83.9014C94.5625 84.1795 94.4698 84.4576 94.2844 84.643C94.0989 84.8285 93.9135 85.0139 93.6354 85.1066L94.5625 86.4972H94.0062V86.5899ZM93.6354 84.7357C93.8208 84.5503 93.9135 84.3649 93.9135 83.9941C93.9135 83.7159 93.8208 83.4378 93.6354 83.2524C93.45 83.067 93.1719 82.9743 92.7083 82.9743H91.7812V84.9212H92.801C93.1719 85.0139 93.45 84.9212 93.6354 84.7357Z" fill="#E5E5E4"/>
<path d="M99.1052 86.2191V86.59H96.324V82.6035H99.0125V82.9744H96.6948V84.365H98.7344V84.7358H96.6948V86.2191H99.1052Z" fill="#E5E5E4"/>
</svg>
