<svg width="125" height="89" viewBox="0 0 125 89" fill="none" xmlns="http://www.w3.org/2000/svg">
<path d="M40.1852 24.7529V35.9706L23.5185 58.3133V2.50293L40.1852 24.7529Z" fill="#E5E5E4"/>
<path d="M101.481 2.50293V35.9706L84.8148 58.3133V24.7529L101.481 2.50293Z" fill="#E5E5E4"/>
<path d="M95.9259 2.50293L84.8148 17.3363L62.5 47.0956L29.0741 2.50293H54.1667L62.5 13.6279L70.8333 2.50293H95.9259Z" fill="#E5E5E4"/>
<path d="M7.40741 76.0206C6.66666 75.6498 6.11111 75.0936 5.74074 74.4446C5.37037 73.7956 5.09259 73.054 5.09259 72.2196C5.09259 71.3852 5.27778 70.6436 5.74074 69.9946C6.11111 69.3456 6.66666 68.7894 7.40741 68.4186C8.14815 68.0477 8.88889 67.8623 9.81481 67.8623C10.6481 67.8623 11.3889 68.0477 12.037 68.3258C12.6852 68.604 13.2407 69.0675 13.6111 69.5311L11.8518 71.1071C11.2963 70.4581 10.7407 70.0873 10 70.0873C9.44444 70.0873 8.98148 70.2727 8.61111 70.6436C8.24074 71.0144 8.05555 71.5706 8.05555 72.1269C8.05555 72.7759 8.24074 73.2394 8.61111 73.6102C8.98148 73.9811 9.44444 74.1665 10 74.1665C10.7407 74.1665 11.2963 73.7956 11.8518 73.1467L13.6111 74.7227C13.2407 75.279 12.6852 75.6498 12.037 75.9279C11.3889 76.2061 10.6481 76.3915 9.81481 76.3915C8.88889 76.5769 8.05555 76.3915 7.40741 76.0206Z" fill="#E5E5E4"/>
<path d="M17.8704 74.2593H17.1296V76.3916H14.3518V68.0479H18.4259C19.1667 68.0479 19.9074 68.1406 20.4629 68.4187C21.0185 68.6968 21.4815 69.0676 21.7592 69.5312C22.037 69.9947 22.2222 70.551 22.2222 71.1999C22.2222 71.7562 22.1296 72.3124 21.8518 72.776C21.5741 73.2395 21.2037 73.6103 20.6481 73.7958L22.4074 76.3916H19.3518L17.8704 74.2593ZM19.0741 70.3656C18.8889 70.1801 18.6111 70.0874 18.2407 70.0874H17.2222V72.0343H18.2407C18.6111 72.0343 18.8889 71.9416 19.0741 71.7562C19.2592 71.5708 19.3518 71.3853 19.3518 71.0145C19.3518 70.6437 19.2592 70.551 19.0741 70.3656Z" fill="#E5E5E4"/>
<path d="M30.1852 74.2593V76.3916H23.2407V68.0479H30V70.1801H25.9259V71.1999H29.4444V73.2395H25.9259V74.352H30.1852V74.2593Z" fill="#E5E5E4"/>
<path d="M36.9444 74.9083H33.7963L33.2407 76.3916H30.3704L34.0741 68.0479H36.8518L40.5555 76.3916H37.5926L36.9444 74.9083ZM36.2037 72.8687L35.3704 70.7364L34.537 72.8687H36.2037Z" fill="#E5E5E4"/>
<path d="M42.3148 70.1801H39.9074V67.9551H47.5926V70.1801H45.1852V76.3915H42.4074V70.1801H42.3148Z" fill="#E5E5E4"/>
<path d="M48.3333 67.9551H51.1111V76.2988H48.3333V67.9551Z" fill="#E5E5E4"/>
<path d="M61.4815 67.9551L57.963 76.2988H55.1852L51.6667 67.9551H54.6297L56.6667 72.8686L58.7037 67.9551H61.4815Z" fill="#E5E5E4"/>
<path d="M68.7037 74.2593V76.3916H61.7593V68.0479H68.5185V70.1801H64.4445V71.1999H67.963V73.2395H64.4445V74.352H68.7037V74.2593Z" fill="#E5E5E4"/>
<path d="M74.0741 67.9551H77.4074C78.2408 67.9551 79.0741 68.1405 79.7222 68.5113C80.3704 68.8822 80.926 69.3457 81.2963 69.9947C81.6667 70.6436 81.8519 71.3853 81.8519 72.127C81.8519 72.9613 81.6667 73.6103 81.2963 74.2592C80.926 74.9082 80.3704 75.3717 79.7222 75.7426C79.0741 76.1134 78.2408 76.2988 77.4074 76.2988H74.0741V67.9551ZM77.3148 75.8353C78.0556 75.8353 78.7963 75.6499 79.3519 75.3717C79.9074 75.0936 80.3704 74.6301 80.7408 74.0738C81.0185 73.5176 81.2037 72.8686 81.2037 72.2197C81.2037 71.5707 81.0185 70.9217 80.7408 70.3655C80.463 69.8092 80 69.3457 79.3519 69.0676C78.7963 68.7895 78.0556 68.604 77.3148 68.604H74.6297V75.928H77.3148V75.8353Z" fill="#E5E5E4"/>
<path d="M89.7222 75.8354V76.3916H83.9814V68.0479H89.537V68.6041H84.537V71.9416H88.9814V72.4978H84.537V75.9281H89.7222V75.8354Z" fill="#E5E5E4"/>
<path d="M92.4074 76.1133C91.8518 75.9279 91.3889 75.6497 91.1111 75.2789L91.3889 74.8154C91.6666 75.0935 92.037 75.3716 92.5926 75.557C93.1481 75.7424 93.6111 75.8352 94.1666 75.8352C95 75.8352 95.5555 75.6497 96.0185 75.3716C96.3889 75.0935 96.6666 74.6299 96.6666 74.1664C96.6666 73.7956 96.574 73.5174 96.3889 73.2393C96.2037 72.9612 95.9259 72.8685 95.5555 72.6831C95.2777 72.5904 94.8148 72.4049 94.2592 72.3122C93.6111 72.1268 93.1481 72.0341 92.7777 71.8487C92.4074 71.6633 92.1296 71.4779 91.8518 71.1997C91.574 70.9216 91.4815 70.4581 91.4815 69.9945C91.4815 69.6237 91.574 69.2529 91.7592 68.882C91.9444 68.5112 92.3148 68.2331 92.7777 68.0477C93.2407 67.8622 93.7963 67.7695 94.4444 67.7695C94.9074 67.7695 95.3703 67.8622 95.8333 67.955C96.2963 68.0477 96.6666 68.2331 97.037 68.5112L96.8518 68.9747C96.4815 68.6966 96.1111 68.6039 95.7407 68.4185C95.3703 68.2331 94.9074 68.2331 94.537 68.2331C93.7963 68.2331 93.1481 68.4185 92.7777 68.6966C92.4074 68.9747 92.2222 69.4383 92.2222 69.9018C92.2222 70.2727 92.3148 70.5508 92.5 70.8289C92.6852 71.0143 92.9629 71.1997 93.3333 71.3852C93.6111 71.4779 94.074 71.6633 94.6296 71.756C95.2777 71.9414 95.7407 72.0341 96.1111 72.2195C96.4815 72.405 96.7592 72.5904 97.037 72.8685C97.3148 73.1466 97.4074 73.5175 97.4074 74.0737C97.4074 74.4445 97.3148 74.8154 97.037 75.1862C96.8518 75.557 96.4815 75.8352 96.0185 76.0206C95.5555 76.206 95 76.2987 94.3518 76.2987C93.5185 76.3914 92.9629 76.2987 92.4074 76.1133Z" fill="#E5E5E4"/>
<path d="M99.1667 67.9551H99.8148V76.2988H99.1667V67.9551Z" fill="#E5E5E4"/>
<path d="M108.704 72.2197H109.259V75.3717C108.889 75.7426 108.426 76.0207 107.963 76.2061C107.407 76.3915 106.852 76.4842 106.296 76.4842C105.463 76.4842 104.722 76.2988 104.074 75.928C103.426 75.5572 102.87 75.0936 102.5 74.4447C102.13 73.7957 101.944 73.054 101.944 72.2197C101.944 71.3853 102.13 70.6436 102.5 69.9947C102.87 69.3457 103.426 68.8822 104.074 68.5113C104.722 68.1405 105.463 67.9551 106.296 67.9551C106.944 67.9551 107.5 68.0478 107.963 68.2332C108.519 68.4186 108.889 68.6967 109.259 69.0676L108.889 69.4384C108.519 69.0676 108.148 68.7894 107.685 68.6967C107.222 68.5113 106.759 68.4186 106.204 68.4186C105.463 68.4186 104.815 68.604 104.259 68.8822C103.704 69.1603 103.241 69.6238 102.87 70.1801C102.5 70.7363 102.407 71.3853 102.407 72.0342C102.407 72.6832 102.593 73.3322 102.87 73.8884C103.241 74.4447 103.611 74.9082 104.259 75.1863C104.907 75.4644 105.463 75.6499 106.204 75.6499C107.13 75.6499 107.963 75.3717 108.611 74.9082V72.2197H108.704Z" fill="#E5E5E4"/>
<path d="M118.796 67.9551V76.2988H118.333L112.593 68.9749V76.2988H111.944V67.9551H112.5L118.148 75.279V67.9551H118.796Z" fill="#E5E5E4"/>
<path d="M26.0185 82.9739H24.6296V82.603H27.8704V82.9739H26.4815V86.5895H26.0185V82.9739Z" fill="#E5E5E4"/>
<path d="M31.7593 85.4769H29.537L29.0741 86.4967H28.6111L30.463 82.5103H30.8333L32.6852 86.4967H32.2222L31.7593 85.4769ZM31.5741 85.1061L30.6482 82.9738L29.7222 85.1061H31.5741Z" fill="#E5E5E4"/>
<path d="M36.9445 84.5498H37.3148V86.0331C37.1297 86.2185 36.9445 86.3112 36.6667 86.4039C36.3889 86.4966 36.1111 86.4966 35.8334 86.4966C35.463 86.4966 35.0926 86.4039 34.7223 86.2185C34.4445 86.0331 34.1667 85.8477 33.9815 85.4769C33.7963 85.1987 33.7037 84.8279 33.7037 84.4571C33.7037 84.0862 33.7963 83.7154 33.9815 83.4373C34.1667 83.1591 34.4445 82.881 34.7223 82.6956C35 82.5102 35.3704 82.4175 35.8334 82.4175C36.1111 82.4175 36.3889 82.5102 36.6667 82.6029C36.9445 82.6956 37.1297 82.881 37.3148 83.0664L37.0371 83.3446C36.7593 83.0664 36.2963 82.881 35.8334 82.881C35.5556 82.881 35.1852 82.9737 35 83.0664C34.7223 83.2519 34.5371 83.4373 34.3519 83.6227C34.1667 83.9008 34.1667 84.1789 34.1667 84.4571C34.1667 84.7352 34.2593 85.0133 34.3519 85.2914C34.5371 85.5696 34.7223 85.755 35 85.8477C35.2778 85.9404 35.5556 86.0331 35.8334 86.0331C36.2037 86.0331 36.5741 85.9404 36.8519 85.755V84.5498H36.9445Z" fill="#E5E5E4"/>
<path d="M39.4445 82.603H39.8148V86.2187H42.0371V86.5895H39.4445V82.603Z" fill="#E5E5E4"/>
<path d="M43.6111 82.603H44.0741V86.5895H43.6111V82.603Z" fill="#E5E5E4"/>
<path d="M49.5371 82.603V86.5895H49.1667L46.6667 83.3447V86.5895H46.2037V82.603H46.5741L49.1667 85.8478V82.603H49.5371Z" fill="#E5E5E4"/>
<path d="M54.5371 86.2187V86.5895H51.7593V82.603H54.4445V82.9739H52.1296V84.3645H54.1667V84.7353H52.1296V86.2187H54.5371Z" fill="#E5E5E4"/>
<path d="M61.5741 84.5498H61.9445V86.0331C61.7593 86.2185 61.5741 86.3112 61.2963 86.4039C61.0186 86.4966 60.7408 86.4966 60.463 86.4966C60.0926 86.4966 59.7223 86.4039 59.3519 86.2185C59.0741 86.0331 58.7963 85.8477 58.6112 85.4769C58.426 85.1987 58.3334 84.8279 58.3334 84.4571C58.3334 84.0862 58.426 83.7154 58.6112 83.4373C58.7963 83.1591 59.0741 82.881 59.3519 82.6956C59.6297 82.5102 60 82.4175 60.463 82.4175C60.7408 82.4175 61.0186 82.5102 61.2963 82.6029C61.5741 82.6956 61.7593 82.881 61.9445 83.0664L61.6667 83.3446C61.3889 83.0664 60.926 82.881 60.463 82.881C60.1852 82.881 59.8149 82.9737 59.6297 83.0664C59.3519 83.2519 59.1667 83.4373 58.9815 83.6227C58.7963 83.9008 58.7963 84.1789 58.7963 84.4571C58.7963 84.7352 58.8889 85.0133 58.9815 85.2914C59.1667 85.5696 59.3519 85.755 59.6297 85.8477C59.9074 85.9404 60.1852 86.2185 60.5556 86.2185C60.926 86.2185 61.2963 86.1258 61.5741 85.9404V84.5498Z" fill="#E5E5E4"/>
<path d="M64.7223 86.3113C64.4445 86.1259 64.1667 85.9405 63.9815 85.5696C63.7963 85.2915 63.7037 84.9207 63.7037 84.5498C63.7037 84.179 63.7963 83.8082 63.9815 83.53C64.1667 83.2519 64.4445 82.9738 64.7223 82.7884C65 82.603 65.3704 82.5103 65.7408 82.5103C66.1111 82.5103 66.4815 82.603 66.7593 82.7884C67.0371 82.9738 67.3148 83.1592 67.5 83.53C67.6852 83.8082 67.7778 84.179 67.7778 84.5498C67.7778 84.9207 67.7778 85.2915 67.5926 85.5696C67.4074 85.8478 67.1297 86.1259 66.8519 86.3113C66.5741 86.4967 66.2037 86.5894 65.8334 86.5894C65.463 86.5894 65.0926 86.4967 64.7223 86.3113ZM66.6667 86.0332C66.9445 85.8478 67.1297 85.6623 67.2222 85.4769C67.4074 85.1988 67.4074 84.9207 67.4074 84.6425C67.4074 84.3644 67.3148 84.0863 67.2222 83.8082C67.0371 83.53 66.8519 83.3446 66.6667 83.2519C66.4815 83.1592 66.1111 83.0665 65.8334 83.0665C65.5556 83.0665 65.2778 83.1592 65 83.2519C64.7222 83.3446 64.5371 83.6228 64.4445 83.8082C64.2593 84.0863 64.2593 84.3644 64.2593 84.6425C64.2593 84.9207 64.3519 85.1988 64.4445 85.4769C64.6297 85.755 64.8148 85.9405 65 86.0332C65.1852 86.1259 65.5556 86.2186 65.8334 86.2186C66.1111 86.2186 66.3889 86.1259 66.6667 86.0332Z" fill="#E5E5E4"/>
<path d="M72.5 86.2187V86.5895H69.7222V82.603H72.4074V82.9739H70.0926V84.3645H72.1296V84.7353H70.0926V86.2187H72.5Z" fill="#E5E5E4"/>
<path d="M74.6297 86.4041C74.3519 86.3114 74.1667 86.2187 73.9815 86.0333L74.1667 85.7552C74.3519 85.9406 74.5371 86.0333 74.7222 86.126C75 86.2187 75.1852 86.2187 75.463 86.2187C75.8334 86.2187 76.1111 86.126 76.2963 86.0333C76.4815 85.9406 76.5741 85.7552 76.5741 85.5698C76.5741 85.3843 76.4815 85.2916 76.3889 85.1989C76.2963 85.1062 76.2037 85.0135 76.0185 85.0135C75.8334 84.9208 75.6482 84.9208 75.463 84.8281C75.1852 84.7354 74.9074 84.6427 74.7222 84.6427C74.5371 84.55 74.3519 84.4573 74.2593 84.3646C74.1667 84.1791 74.0741 83.9937 74.0741 83.8083C74.0741 83.6229 74.1667 83.4375 74.2593 83.2521C74.3519 83.0666 74.5371 82.9739 74.7222 82.8812C74.9074 82.7885 75.1852 82.6958 75.5556 82.6958C75.7408 82.6958 76.0185 82.6958 76.2037 82.7885C76.3889 82.8812 76.5741 82.9739 76.7593 83.0666L76.5741 83.4375C76.3889 83.3448 76.2037 83.2521 76.0185 83.1593C75.8334 83.0666 75.6482 83.0666 75.463 83.0666C75.0926 83.0666 74.8148 83.1593 74.7222 83.2521C74.6297 83.3448 74.4445 83.5302 74.4445 83.8083C74.4445 83.9937 74.5371 84.0864 74.6297 84.1791C74.7222 84.2718 74.8148 84.3646 75 84.3646C75.1852 84.4573 75.3704 84.4573 75.5556 84.55C75.8334 84.6427 76.1111 84.7354 76.2963 84.7354C76.4815 84.8281 76.6667 84.9208 76.7593 85.0135C76.8519 85.1989 76.9445 85.3843 76.9445 85.5698C76.9445 85.7552 76.8519 85.9406 76.7593 86.126C76.6667 86.3114 76.4815 86.4041 76.2963 86.4968C76.1111 86.5896 75.8334 86.6823 75.463 86.6823C75.1852 86.5896 74.9074 86.4968 74.6297 86.4041Z" fill="#E5E5E4"/>
<path d="M84.4445 82.603V86.5895H84.0741V84.7353H81.5741V86.5895H81.1111V82.603H81.5741V84.3645H84.0741V82.603H84.4445Z" fill="#E5E5E4"/>
<path d="M89.4445 86.2187V86.5895H86.6667V82.603H89.3519V82.9739H87.0371V84.3645H89.0741V84.7353H87.0371V86.2187H89.4445Z" fill="#E5E5E4"/>
<path d="M94.0741 86.4967L93.1482 85.1988C93.0556 85.1988 92.963 85.1988 92.8704 85.1988H91.8519V86.4967H91.3889V82.5103H92.8704C93.3334 82.5103 93.7963 82.603 94.0741 82.8811C94.3519 83.1592 94.5371 83.4373 94.5371 83.9009C94.5371 84.179 94.4445 84.4571 94.2593 84.6425C94.0741 84.828 93.8889 85.0134 93.6111 85.1061L94.5371 86.4967H94.0741ZM93.7037 84.6425C93.8889 84.4571 93.9815 84.2717 93.9815 83.9009C93.9815 83.6228 93.8889 83.3446 93.7037 83.1592C93.5185 82.9738 93.2408 82.8811 92.7778 82.8811H91.7593V84.828H92.7778C93.1482 84.9207 93.5185 84.828 93.7037 84.6425Z" fill="#E5E5E4"/>
<path d="M99.0741 86.2187V86.5895H96.2963V82.603H98.9815V82.9739H96.6667V84.3645H98.7037V84.7353H96.6667V86.2187H99.0741Z" fill="#E5E5E4"/>
</svg>
