<svg width="126" height="89" viewBox="0 0 126 89" fill="none" xmlns="http://www.w3.org/2000/svg">
<path d="M34.5802 23.3628L57.9427 58.3138H11.3104L34.5802 23.3628Z" fill="#E5E5E4"/>
<path d="M85.8479 58.3138H63.5051L37.4541 19.1909L48.5791 2.41064L85.8479 58.3138Z" fill="#E5E5E4"/>
<path d="M113.846 58.3138H91.5031L65.3593 19.1909L76.577 2.41064L113.846 58.3138Z" fill="#E5E5E4"/>
<path d="M85.8479 58.3138H63.5051L37.4541 19.1909L48.5791 2.41064L85.8479 58.3138Z" fill="#E5E5E4"/>
<path d="M7.32393 76.021C6.58227 75.6502 6.02602 75.0939 5.65518 74.445C5.28435 73.796 5.00623 73.0543 5.00623 72.1272C5.00623 71.2002 5.19164 70.5512 5.65518 69.8095C6.02602 69.1606 6.58227 68.6043 7.32393 68.2335C8.0656 67.8627 8.80727 67.6772 9.73435 67.6772C10.5687 67.6772 11.3104 67.8627 11.9594 68.1408C12.6083 68.4189 13.1646 68.8825 13.5354 69.346L11.7739 70.922C11.2177 70.2731 10.6614 69.9022 9.91977 69.9022C9.36352 69.9022 8.80727 70.0877 8.52914 70.4585C8.15831 70.8293 7.97289 71.3856 7.97289 71.9418C7.97289 72.4981 8.15831 73.0543 8.52914 73.4252C8.89998 73.796 9.36352 73.9814 9.91977 73.9814C10.6614 73.9814 11.2177 73.6106 11.7739 72.9616L13.5354 74.5377C13.1646 75.0939 12.6083 75.4647 11.9594 75.7429C11.3104 76.021 10.5687 76.2064 9.73435 76.2064C8.80727 76.5772 7.97289 76.3918 7.32393 76.021Z" fill="#E5E5E4"/>
<path d="M17.8927 74.2597H17.151V76.392H14.277V67.9556H18.3562C19.0979 67.9556 19.8395 68.0483 20.3958 68.3264C20.952 68.6045 21.4156 68.9754 21.6937 69.4389C21.9718 69.9024 22.1572 70.4587 22.1572 71.1076C22.1572 71.6639 22.0645 72.2201 21.7864 72.6837C21.5083 73.1472 21.1375 73.5181 20.5812 73.7962L22.3427 76.392H19.2833L17.8927 74.2597ZM19.0052 70.4587C18.8197 70.2733 18.5416 70.1806 18.1708 70.1806H17.151V72.1274H18.1708C18.5416 72.1274 18.8197 72.0347 19.0052 71.8493C19.1906 71.6639 19.2833 71.4785 19.2833 71.1076C19.2833 70.8295 19.1906 70.6441 19.0052 70.4587Z" fill="#E5E5E4"/>
<path d="M30.2229 74.2597V76.392H23.1771V67.9556H30.0375V70.0879H25.9583V71.1076H29.4812V73.1472H25.9583V74.2597H30.2229Z" fill="#E5E5E4"/>
<path d="M36.9906 74.9087H33.8385L33.2823 76.392H30.4083L34.1167 67.9556H36.8979L40.6062 76.392H37.6396L36.9906 74.9087ZM36.249 72.8691L35.4146 70.7368L34.5802 72.8691H36.249Z" fill="#E5E5E4"/>
<path d="M42.3677 70.1806H39.8646V67.9556H47.6521V70.1806H45.1489V76.392H42.275V70.1806H42.3677Z" fill="#E5E5E4"/>
<path d="M48.3937 68.0479H51.2677V76.4843H48.3937V68.0479Z" fill="#E5E5E4"/>
<path d="M61.5583 68.0479L58.0354 76.4843H55.2541L51.7312 68.0479H54.6979L56.7375 72.9614L58.777 68.0479H61.5583Z" fill="#E5E5E4"/>
<path d="M68.7896 74.2597V76.392H61.8364V67.9556H68.6041V70.0879H64.525V71.1076H68.0479V73.1472H64.525V74.2597H68.7896Z" fill="#E5E5E4"/>
<path d="M74.1666 68.0479H77.5041C78.3385 68.0479 79.1729 68.2333 79.8218 68.6041C80.4708 68.9749 81.027 69.4385 81.3979 70.0874C81.7687 70.7364 81.9541 71.4781 81.9541 72.2197C81.9541 72.9614 81.7687 73.7031 81.3979 74.352C81.027 75.001 80.4708 75.4645 79.8218 75.8354C79.1729 76.2062 78.3385 76.3916 77.5041 76.3916H74.1666V68.0479ZM77.4114 75.8354C78.1531 75.8354 78.8947 75.6499 79.451 75.3718C80.0072 75.0937 80.4708 74.6301 80.8416 74.0739C81.1197 73.5176 81.3052 72.8687 81.3052 72.2197C81.3052 71.5708 81.1197 70.9218 80.8416 70.3656C80.5635 69.8093 80.1 69.3458 79.451 69.0676C78.8947 68.7895 78.1531 68.6041 77.4114 68.6041H74.7229V75.9281H77.4114V75.8354Z" fill="#E5E5E4"/>
<path d="M89.8343 75.8358V76.392H84.0864V67.9556H89.7416V68.6045H84.7354V71.942H89.1854V72.4983H84.7354V75.9285H89.8343V75.8358Z" fill="#E5E5E4"/>
<path d="M92.5229 76.1138C91.9666 75.9284 91.5031 75.6502 91.225 75.2794L91.5031 74.8159C91.7812 75.094 92.1521 75.3721 92.7083 75.5575C93.1718 75.7429 93.7281 75.8356 94.2843 75.8356C95.1187 75.8356 95.675 75.6502 96.1385 75.3721C96.5093 75.094 96.7875 74.6304 96.7875 74.1669C96.7875 73.7961 96.6948 73.5179 96.5093 73.2398C96.3239 73.0544 96.0458 72.869 95.675 72.6836C95.3968 72.5909 94.9333 72.4054 94.3771 72.3127C93.7281 72.1273 93.2646 72.0346 92.8937 71.8492C92.5229 71.6638 92.2448 71.4784 91.9666 71.2002C91.6885 70.9221 91.5958 70.4586 91.5958 69.995C91.5958 69.6242 91.6885 69.2534 91.8739 68.8825C92.0593 68.5117 92.4302 68.2336 92.8937 68.0481C93.3573 67.8627 93.9135 67.77 94.5625 67.77C95.026 67.77 95.4896 67.8627 95.9531 67.9554C96.4166 68.0481 96.7875 68.2336 97.1583 68.5117L96.9729 68.9752C96.6021 68.6971 96.2312 68.6044 95.8604 68.419C95.4896 68.3263 95.026 68.2336 94.6552 68.2336C93.9135 68.2336 93.2646 68.419 92.8937 68.6971C92.5229 68.9752 92.3375 69.4388 92.3375 69.9023C92.3375 70.2731 92.4302 70.5513 92.6156 70.8294C92.801 71.0148 93.0791 71.2002 93.45 71.3856C93.7281 71.4784 94.1916 71.6638 94.7479 71.7565C95.3968 71.9419 95.8604 72.0346 96.2312 72.22C96.6021 72.4054 96.8802 72.5909 97.1583 72.869C97.4364 73.1471 97.5291 73.5179 97.5291 74.0742C97.5291 74.445 97.4364 74.8159 97.1583 75.1867C96.8802 75.5575 96.6021 75.8356 96.1385 76.0211C95.675 76.2065 95.1187 76.2992 94.4698 76.2992C93.6354 76.4846 93.0791 76.3919 92.5229 76.1138Z" fill="#E5E5E4"/>
<path d="M99.3833 68.0479H100.032V76.4843H99.3833V68.0479Z" fill="#E5E5E4"/>
<path d="M108.932 72.2201H109.489V75.3722C109.118 75.7431 108.654 76.0212 108.191 76.2066C107.634 76.392 107.078 76.4847 106.522 76.4847C105.687 76.4847 104.946 76.2993 104.297 75.9285C103.648 75.5576 103.092 75.0941 102.721 74.4451C102.35 73.7962 102.165 73.0545 102.165 72.2201C102.165 71.3858 102.35 70.6441 102.721 69.9951C103.092 69.3462 103.648 68.8826 104.297 68.5118C104.946 68.141 105.687 67.9556 106.522 67.9556C107.171 67.9556 107.727 68.0483 108.191 68.2337C108.747 68.4191 109.118 68.6972 109.489 69.0681L109.118 69.4389C108.747 69.0681 108.376 68.7899 107.912 68.6972C107.449 68.5118 106.985 68.4191 106.429 68.4191C105.687 68.4191 105.039 68.6045 104.482 68.8826C103.926 69.1608 103.462 69.6243 103.092 70.1806C102.721 70.7368 102.628 71.3858 102.628 72.0347C102.628 72.6837 102.814 73.3326 103.092 73.8889C103.462 74.4451 103.833 74.9087 104.482 75.1868C105.131 75.4649 105.687 75.6504 106.429 75.6504C107.356 75.6504 108.191 75.3722 108.84 74.9087V72.2201H108.932Z" fill="#E5E5E4"/>
<path d="M119.037 68.0479V76.4843H118.574L112.826 69.1603V76.4843H112.177V68.0479H112.733L118.481 75.3718V68.0479H119.037Z" fill="#E5E5E4"/>
<path d="M26.051 82.9744H24.6604V82.6035H27.8125V82.9744H26.4219V86.59H25.9583V82.9744H26.051Z" fill="#E5E5E4"/>
<path d="M31.7062 85.5702H29.4812L29.0177 86.59H28.5541L30.4083 82.6035H30.7791L32.6333 86.59H32.1698L31.7062 85.5702ZM31.5208 85.1994L30.5937 83.0671L29.6666 85.1994H31.5208Z" fill="#E5E5E4"/>
<path d="M36.8979 84.643H37.2688V86.1264C37.0833 86.3118 36.8979 86.4045 36.6198 86.4972C36.3417 86.5899 36.0636 86.5899 35.7854 86.5899C35.4146 86.5899 35.0438 86.4972 34.6729 86.3118C34.3021 86.1264 34.1167 85.941 33.9313 85.5701C33.7458 85.292 33.6531 84.9212 33.6531 84.5503C33.6531 84.1795 33.7458 83.8087 33.9313 83.5305C34.1167 83.2524 34.3948 82.9743 34.6729 82.7889C34.9511 82.6035 35.3219 82.5107 35.7854 82.5107C36.0636 82.5107 36.3417 82.6034 36.6198 82.6962C36.8979 82.7889 37.0833 82.9743 37.2688 83.1597L37.0833 83.4378C36.8052 83.1597 36.3417 82.9743 35.8781 82.9743C35.6 82.9743 35.2292 83.067 35.0438 83.1597C34.7656 83.3451 34.5802 83.5305 34.3948 83.716C34.2094 83.9941 34.2094 84.2722 34.2094 84.5503C34.2094 84.8284 34.3021 85.1066 34.3948 85.3847C34.4875 85.6628 34.7656 85.8482 35.0438 85.9409C35.3219 86.1264 35.6 86.1264 35.8781 86.1264C36.249 86.1264 36.6198 86.0337 36.8979 85.8482V84.643Z" fill="#E5E5E4"/>
<path d="M39.401 82.6035H39.8645V86.2191H42.0895V86.59H39.4937V82.6035H39.401Z" fill="#E5E5E4"/>
<path d="M43.6656 82.6035H44.1291V86.59H43.6656V82.6035Z" fill="#E5E5E4"/>
<path d="M49.599 82.6035V86.59H49.2281L46.725 83.4379V86.6827H46.2615V82.6962H46.6323L49.2281 85.941V82.6962H49.599V82.6035Z" fill="#E5E5E4"/>
<path d="M54.6052 86.2191V86.59H51.824V82.6035H54.5125V82.9744H52.1948V84.365H54.2344V84.7358H52.1948V86.2191H54.6052Z" fill="#E5E5E4"/>
<path d="M61.651 84.643H62.0219V86.1264C61.8365 86.3118 61.651 86.4045 61.3729 86.4972C61.0948 86.5899 60.8167 86.5899 60.5385 86.5899C60.1677 86.5899 59.7969 86.4972 59.426 86.3118C59.1479 86.1264 58.8698 85.941 58.6844 85.5701C58.499 85.292 58.4062 84.9212 58.4062 84.5503C58.4062 84.1795 58.499 83.8087 58.6844 83.5305C58.8698 83.2524 59.1479 82.9743 59.426 82.7889C59.7042 82.6035 60.075 82.5107 60.5385 82.5107C60.8167 82.5107 61.0948 82.6034 61.3729 82.6962C61.651 82.7889 61.8365 82.9743 62.0219 83.1597L61.8365 83.4378C61.5583 83.1597 61.0948 82.9743 60.6313 82.9743C60.3531 82.9743 59.9823 83.067 59.7969 83.1597C59.5188 83.3451 59.3333 83.5305 59.1479 83.716C58.9625 83.9941 58.9625 84.2722 58.9625 84.5503C58.9625 84.8284 59.0552 85.1066 59.1479 85.3847C59.2406 85.6628 59.5188 85.8482 59.7969 85.9409C60.075 86.1264 60.3531 86.1264 60.6313 86.1264C61.0021 86.1264 61.3729 86.0337 61.651 85.8482V84.643Z" fill="#E5E5E4"/>
<path d="M64.8031 86.4046C64.525 86.2191 64.2469 86.0337 64.0614 85.6629C63.876 85.3848 63.7833 85.0139 63.7833 84.6431C63.7833 84.2723 63.876 83.9014 64.0614 83.6233C64.2469 83.3452 64.525 83.0671 64.8031 82.8816C65.0812 82.6962 65.4521 82.6035 65.9156 82.6035C66.2864 82.6035 66.6573 82.6962 66.9354 82.8816C67.2135 83.0671 67.4917 83.2525 67.6771 83.6233C67.8625 83.9014 67.9552 84.2723 67.9552 84.6431C67.9552 85.0139 67.8625 85.3848 67.6771 85.6629C67.4917 85.941 67.2135 86.2191 66.9354 86.4046C66.6573 86.59 66.2864 86.6827 65.9156 86.6827C65.4521 86.6827 65.1739 86.59 64.8031 86.4046ZM66.75 86.0337C67.0281 85.8483 67.2135 85.6629 67.3062 85.4775C67.4917 85.1993 67.4917 84.9212 67.4917 84.6431C67.4917 84.365 67.3989 84.0869 67.3062 83.8087C67.1208 83.5306 66.9354 83.3452 66.75 83.2525C66.4719 83.0671 66.1937 83.0671 65.9156 83.0671C65.6375 83.0671 65.3594 83.1598 65.0812 83.2525C64.8031 83.4379 64.6177 83.6233 64.525 83.8087C64.3396 84.0869 64.3396 84.365 64.3396 84.6431C64.3396 84.9212 64.4323 85.1993 64.525 85.4775C64.7104 85.7556 64.8958 85.941 65.0812 86.0337C65.3594 86.2191 65.6375 86.2191 65.9156 86.2191C66.1937 86.3119 66.4719 86.2191 66.75 86.0337Z" fill="#E5E5E4"/>
<path d="M72.5906 86.2191V86.59H69.8094V82.6035H72.4979V82.9744H70.1802V84.365H72.3125V84.7358H70.2729V86.2191H72.5906Z" fill="#E5E5E4"/>
<path d="M74.7229 86.4974C74.4448 86.4047 74.2594 86.312 74.074 86.1266L74.2594 85.8484C74.4448 86.0338 74.6302 86.1266 74.8156 86.2193C75.0938 86.312 75.2792 86.312 75.5573 86.312C75.9281 86.312 76.2063 86.2193 76.3917 86.1266C76.5771 86.0339 76.6698 85.8484 76.6698 85.663C76.6698 85.4776 76.5771 85.3849 76.4844 85.2922C76.3917 85.1995 76.299 85.1068 76.1136 85.1068C75.9281 85.0141 75.7427 85.0141 75.5573 84.9214C75.2792 84.8286 75.0011 84.7359 74.8156 84.7359C74.6302 84.7359 74.4448 84.5505 74.3521 84.4578C74.2594 84.2724 74.1667 84.087 74.1667 83.9016C74.1667 83.7161 74.2594 83.5307 74.3521 83.3453C74.4448 83.1599 74.6302 83.0672 74.8156 82.9745C75.0011 82.8818 75.2792 82.7891 75.65 82.7891C75.8354 82.7891 76.1136 82.7891 76.299 82.8818C76.4844 82.9745 76.6698 83.0672 76.8552 83.1599L76.6698 83.5307C76.4844 83.438 76.299 83.3453 76.1136 83.2526C75.9281 83.1599 75.7427 83.1599 75.5573 83.1599C75.1865 83.1599 74.9083 83.2526 74.8156 83.3453C74.7229 83.438 74.5375 83.6234 74.5375 83.9016C74.5375 84.087 74.6302 84.1797 74.7229 84.2724C74.8156 84.3651 74.9083 84.4578 75.0938 84.4578C75.2792 84.4578 75.4646 84.5505 75.65 84.6432C75.9281 84.7359 76.2063 84.8286 76.3917 84.8286C76.5771 84.9214 76.7625 85.0141 76.8552 85.1068C76.9479 85.2922 77.0406 85.4776 77.0406 85.663C77.0406 85.8484 76.9479 86.0339 76.8552 86.2193C76.7625 86.4047 76.5771 86.4974 76.3917 86.5901C76.2063 86.6828 75.9281 86.7755 75.5573 86.7755C75.2792 86.6828 75.0011 86.5901 74.7229 86.4974Z" fill="#E5E5E4"/>
<path d="M84.6427 82.6035V86.59H84.2718V84.7358H81.7687V86.59H81.3052V82.6035H81.7687V84.365H84.2718V82.6035H84.6427Z" fill="#E5E5E4"/>
<path d="M89.5562 86.2191V86.59H86.775V82.6035H89.4635V82.9744H87.1458V84.365H89.1854V84.7358H87.1458V86.2191H89.5562Z" fill="#E5E5E4"/>
<path d="M94.1917 86.59L93.2646 85.2921C93.1719 85.2921 93.0792 85.2921 92.9865 85.2921H91.9667V86.59H91.5031V82.6035H92.9865C93.45 82.6035 93.9135 82.6962 94.1917 82.9744C94.4698 83.2525 94.6552 83.5306 94.6552 83.9941C94.6552 84.2723 94.5625 84.5504 94.3771 84.7358C94.1917 84.9212 94.0062 85.1066 93.7281 85.1994L94.6552 86.59H94.1917ZM93.9135 84.7358C94.099 84.5504 94.1917 84.2723 94.1917 83.9941C94.1917 83.716 94.099 83.4379 93.9135 83.2525C93.7281 83.0671 93.45 82.9744 92.9865 82.9744H91.9667V84.9212H92.9865C93.3573 85.0139 93.6354 84.9212 93.9135 84.7358Z" fill="#E5E5E4"/>
<path d="M99.2906 86.2191V86.59H96.5093V82.6035H99.1979V82.9744H96.8802V84.365H98.9198V84.7358H96.8802V86.2191H99.2906Z" fill="#E5E5E4"/>
</svg>
