<svg width="126" height="89" viewBox="0 0 126 89" fill="none" xmlns="http://www.w3.org/2000/svg">
<path d="M83.9011 2.50293L67.2136 19.1904V2.50293H55.9959L39.3084 19.1904V2.50293H30.0376V58.3133H39.3084V32.2623L57.9428 13.7206V48.9498L53.3074 53.5852V25.68L43.9438 35.0436V58.3133H67.2136V32.2623L85.848 13.7206V48.9498L81.2126 53.5852V25.68L71.8491 35.0436V58.3133H95.1189V2.50293H83.9011Z" fill="#E5E5E4"/>
<path d="M7.41671 76.0206C6.67504 75.6498 6.11879 75.0936 5.74796 74.4446C5.37712 73.7956 5.099 73.054 5.099 72.2196C5.099 71.3852 5.28442 70.6436 5.74796 69.9946C6.2115 69.3456 6.67504 68.7894 7.41671 68.4186C8.15837 68.0477 8.90004 67.8623 9.82713 67.8623C10.6615 67.8623 11.4032 68.0477 12.0521 68.3258C12.7011 68.604 13.2573 69.0675 13.6282 69.5311L11.8667 71.1071C11.3105 70.4581 10.7542 70.0873 10.0125 70.0873C9.45629 70.0873 8.99275 70.2727 8.62192 70.6436C8.25108 71.0144 8.06567 71.5706 8.06567 72.1269C8.06567 72.7759 8.25108 73.2394 8.62192 73.6102C8.99275 73.9811 9.45629 74.1665 10.0125 74.1665C10.7542 74.1665 11.3105 73.7956 11.8667 73.1467L13.6282 74.7227C13.2573 75.279 12.7011 75.6498 12.0521 75.9279C11.4032 76.2061 10.6615 76.3915 9.82713 76.3915C8.90004 76.5769 8.06567 76.3915 7.41671 76.0206Z" fill="#E5E5E4"/>
<path d="M17.9854 74.2593H17.2438V76.3916H14.4625V68.0479H18.5417C19.2834 68.0479 20.025 68.1406 20.5813 68.4187C21.1375 68.6968 21.6011 69.0676 21.8792 69.5312C22.1573 69.9947 22.3427 70.551 22.3427 71.1999C22.3427 71.7562 22.25 72.3124 21.9719 72.776C21.6938 73.2395 21.3229 73.6103 20.7667 73.7958L22.5281 76.3916H19.4688L17.9854 74.2593ZM19.0979 70.3656C18.9125 70.1801 18.6344 70.0874 18.2636 70.0874H17.2438V72.0343H18.2636C18.6344 72.0343 18.9125 71.9416 19.0979 71.7562C19.2834 71.5708 19.3761 71.3853 19.3761 71.0145C19.3761 70.6437 19.2834 70.551 19.0979 70.3656Z" fill="#E5E5E4"/>
<path d="M30.2229 74.1665V76.2988H23.2698V67.9551H30.0375V70.0874H25.9583V71.1072H29.4812V73.1467H25.9583V74.1665H30.2229Z" fill="#E5E5E4"/>
<path d="M37.0834 74.9083H33.9313L33.3751 76.3916H30.5011L34.2094 68.0479H36.9907L40.699 76.3916H37.7323L37.0834 74.9083ZM36.249 72.8687L35.4146 70.7364L34.5803 72.8687H36.249Z" fill="#E5E5E4"/>
<path d="M42.3677 70.1801H39.9573V67.9551H47.6521V70.1801H45.2417V76.3915H42.4604V70.1801H42.3677Z" fill="#E5E5E4"/>
<path d="M48.3938 67.9551H51.175V76.2988H48.3938V67.9551Z" fill="#E5E5E4"/>
<path d="M61.5584 67.9551L58.0355 76.2988H55.2542L51.7313 67.9551H54.698L56.7376 72.8686L58.7772 67.9551H61.5584Z" fill="#E5E5E4"/>
<path d="M68.7897 74.1665V76.2988H61.8365V67.9551H68.6043V70.0874H64.5251V71.1072H68.048V73.1467H64.5251V74.1665H68.7897Z" fill="#E5E5E4"/>
<path d="M74.1667 67.9551H77.5042C78.3386 67.9551 79.173 68.1405 79.822 68.5113C80.4709 68.8822 81.0272 69.3457 81.398 69.9947C81.7688 70.6436 81.9543 71.3853 81.9543 72.127C81.9543 72.9613 81.7688 73.6103 81.398 74.2592C81.0272 74.9082 80.4709 75.3717 79.822 75.7426C79.173 76.1134 78.3386 76.2988 77.5042 76.2988H74.1667V67.9551ZM77.4115 75.8353C78.1532 75.8353 78.8949 75.6499 79.4511 75.3717C80.0074 75.0936 80.4709 74.6301 80.8417 74.0738C81.1199 73.5176 81.3053 72.8686 81.3053 72.2197C81.3053 71.478 81.1199 70.9217 80.8417 70.3655C80.5636 69.8092 80.1001 69.3457 79.4511 69.0676C78.8949 68.7895 78.1532 68.604 77.4115 68.604H74.723V75.928H77.4115V75.8353Z" fill="#E5E5E4"/>
<path d="M89.8345 75.8354V76.3916H84.0865V68.0479H89.649V68.6041H84.6428V71.9416H89.0928V72.3124H84.6428V75.7426H89.8345V75.8354Z" fill="#E5E5E4"/>
<path d="M92.4302 76.1133C91.874 75.9279 91.4104 75.6497 91.1323 75.2789L91.4104 74.8154C91.6886 75.0935 92.0594 75.3716 92.6157 75.557C93.1719 75.7424 93.6354 75.8352 94.1917 75.8352C95.0261 75.8352 95.5823 75.6497 95.9532 75.3716C96.324 75.0935 96.6021 74.6299 96.6021 74.1664C96.6021 73.7956 96.5094 73.5174 96.324 73.2393C96.1386 72.9612 95.8604 72.8685 95.4896 72.6831C95.2115 72.5904 94.7479 72.4049 94.1917 72.3122C93.5427 72.1268 93.0792 72.0341 92.7084 71.8487C92.3375 71.6633 92.0594 71.4779 91.7813 71.1997C91.5032 70.9216 91.4104 70.4581 91.4104 69.9945C91.4104 69.6237 91.5032 69.2529 91.6886 68.882C91.874 68.5112 92.2448 68.2331 92.7084 68.0477C93.1719 67.8622 93.7282 67.7695 94.3771 67.7695C94.8407 67.7695 95.3042 67.8622 95.7677 67.955C96.2313 68.0477 96.6021 68.2331 96.9729 68.5112L96.7875 68.9747C96.4167 68.7893 96.0459 68.6039 95.675 68.4185C95.3042 68.3258 94.8407 68.2331 94.4698 68.2331C93.7282 68.2331 93.0792 68.4185 92.7084 68.6966C92.3375 68.9747 92.1521 69.4383 92.1521 69.9018C92.1521 70.2727 92.2448 70.5508 92.4302 70.8289C92.6157 71.107 92.8938 71.1997 93.2646 71.3852C93.5427 71.4779 94.0063 71.6633 94.5625 71.756C95.2115 71.9414 95.675 72.0341 96.0459 72.2195C96.4167 72.405 96.6948 72.5904 96.9729 72.8685C97.2511 73.1466 97.3438 73.5175 97.3438 74.0737C97.3438 74.4445 97.2511 74.8154 96.9729 75.1862C96.7875 75.557 96.4167 75.7424 95.9532 76.0206C95.4896 76.206 94.9334 76.2987 94.2844 76.2987C93.6354 76.3914 92.9865 76.2987 92.4302 76.1133Z" fill="#E5E5E4"/>
<path d="M99.2906 67.9551H99.9396V76.2988H99.2906V67.9551Z" fill="#E5E5E4"/>
<path d="M108.84 72.2197H109.396V75.3718C109.025 75.7426 108.561 76.0208 108.098 76.2062C107.542 76.3916 106.985 76.4843 106.429 76.4843C105.595 76.4843 104.853 76.2989 104.204 75.9281C103.555 75.5572 102.999 75.0937 102.628 74.4447C102.257 73.7958 102.072 73.0541 102.072 72.2197C102.072 71.3854 102.257 70.6437 102.628 70.0874C102.999 69.4385 103.555 68.9749 104.204 68.6041C104.853 68.2333 105.595 68.0479 106.429 68.0479C107.078 68.0479 107.634 68.1406 108.098 68.326C108.654 68.5114 109.025 68.7895 109.396 69.1603L109.025 69.5312C108.654 69.1604 108.283 68.8822 107.82 68.7895C107.356 68.6041 106.893 68.5114 106.336 68.5114C105.595 68.5114 104.946 68.6968 104.39 68.9749C103.833 69.2531 103.37 69.7166 102.999 70.2729C102.628 70.8291 102.535 71.4781 102.535 72.127C102.535 72.776 102.721 73.4249 102.999 73.9812C103.37 74.5374 103.741 75.001 104.39 75.2791C105.039 75.5572 105.595 75.7426 106.336 75.7426C107.264 75.7426 108.098 75.4645 108.747 75.001V72.2197H108.84Z" fill="#E5E5E4"/>
<path d="M118.945 67.9551V76.2988H118.481L112.733 68.9749V76.2988H112.084V67.9551H112.641L118.296 75.279V67.9551H118.945Z" fill="#E5E5E4"/>
<path d="M26.1438 82.9739H24.7532V82.603H27.998V82.9739H26.6073V86.5895H26.1438V82.9739Z" fill="#E5E5E4"/>
<path d="M31.7991 85.4769H29.5741L29.1105 86.4967H28.647L30.5011 82.5103H30.872L32.7261 86.4967H32.2626L31.7991 85.4769ZM31.6136 85.1061L30.6866 82.9738L29.7595 85.1061H31.6136Z" fill="#E5E5E4"/>
<path d="M36.9906 84.5498H37.3615V86.0331C37.1761 86.2185 36.9906 86.3112 36.7125 86.4039C36.4344 86.4966 36.1563 86.4966 35.8781 86.4966C35.5073 86.4966 35.1365 86.4039 34.7656 86.2185C34.4875 86.0331 34.2094 85.8477 34.024 85.4769C33.8386 85.1987 33.7458 84.8279 33.7458 84.4571C33.7458 84.0862 33.8386 83.7154 34.024 83.4373C34.2094 83.1591 34.4875 82.881 34.7656 82.6956C35.0438 82.5102 35.4146 82.4175 35.8781 82.4175C36.1563 82.4175 36.4344 82.5102 36.7125 82.6029C36.9906 82.6956 37.1761 82.881 37.3615 83.0664L37.0833 83.3446C36.8052 83.0664 36.3417 82.881 35.8781 82.881C35.6 82.881 35.2292 82.9737 35.0438 83.0664C34.7656 83.2519 34.5802 83.4373 34.3948 83.6227C34.2094 83.9008 34.2094 84.1789 34.2094 84.4571C34.2094 84.7352 34.3021 85.0133 34.3948 85.2914C34.5802 85.5696 34.7656 85.755 35.0438 85.8477C35.3219 85.9404 35.6 86.0331 35.8781 86.0331C36.249 86.0331 36.6198 85.9404 36.8979 85.755V84.5498H36.9906Z" fill="#E5E5E4"/>
<path d="M39.4938 82.603H39.8646V86.2187H42.0896V86.5895H39.4938V82.603Z" fill="#E5E5E4"/>
<path d="M43.6656 82.603H44.1292V86.5895H43.6656V82.603Z" fill="#E5E5E4"/>
<path d="M49.599 82.603V86.5895H49.2281L46.725 83.3447V86.5895H46.2615V82.603H46.6323L49.2281 85.8478V82.603H49.599Z" fill="#E5E5E4"/>
<path d="M54.6052 86.1259V86.4967H51.824V82.5103H54.5125V82.8811H52.1948V84.3644H54.2344V84.7353H52.1948V86.2186H54.6052V86.1259Z" fill="#E5E5E4"/>
<path d="M61.651 84.5498H62.0219V86.0331C61.8365 86.2185 61.651 86.3112 61.3729 86.4039C61.0948 86.4966 60.8167 86.4966 60.5385 86.4966C60.1677 86.4966 59.7969 86.4039 59.426 86.2185C59.1479 86.0331 58.8698 85.8477 58.6844 85.4769C58.499 85.1987 58.4062 84.8279 58.4062 84.4571C58.4062 84.0862 58.499 83.7154 58.6844 83.4373C58.8698 83.1591 59.1479 82.881 59.426 82.6956C59.7042 82.5102 60.075 82.4175 60.5385 82.4175C60.8167 82.4175 61.0948 82.5102 61.3729 82.6029C61.651 82.6956 61.8365 82.881 62.0219 83.0664L61.7437 83.3446C61.4656 83.0664 61.0021 82.881 60.5385 82.881C60.2604 82.881 59.8896 82.9737 59.7042 83.0664C59.426 83.2519 59.2406 83.4373 59.0552 83.6227C58.8698 83.9008 58.8698 84.1789 58.8698 84.4571C58.8698 84.7352 58.9625 85.0133 59.0552 85.2914C59.2406 85.5696 59.426 85.755 59.7042 85.8477C59.9823 85.9404 60.2604 86.0331 60.5385 86.0331C60.9094 86.0331 61.2802 85.9404 61.5583 85.755V84.5498H61.651Z" fill="#E5E5E4"/>
<path d="M64.8031 86.3113C64.525 86.1259 64.2469 85.9405 64.0614 85.5696C63.876 85.1988 63.7833 84.9207 63.7833 84.5498C63.7833 84.179 63.876 83.8082 64.0614 83.53C64.2469 83.2519 64.525 82.9738 64.8031 82.7884C65.0812 82.603 65.4521 82.5103 65.8229 82.5103C66.1937 82.5103 66.5646 82.603 66.8427 82.7884C67.1208 82.9738 67.3989 83.1592 67.5844 83.53C67.7698 83.9009 67.8625 84.179 67.8625 84.5498C67.8625 84.9207 67.7698 85.2915 67.5844 85.5696C67.3989 85.8478 67.1208 86.1259 66.8427 86.3113C66.5646 86.4967 66.1937 86.5894 65.8229 86.5894C65.4521 86.5894 65.1739 86.4967 64.8031 86.3113ZM66.75 85.9405C67.0281 85.755 67.2135 85.5696 67.3062 85.3842C67.4917 85.1061 67.4917 84.828 67.4917 84.5498C67.4917 84.2717 67.3989 83.9936 67.3062 83.7155C67.1208 83.4373 66.9354 83.2519 66.75 83.1592C66.4719 82.9738 66.1937 82.9738 65.9156 82.9738C65.6375 82.9738 65.3594 83.0665 65.0812 83.1592C64.8031 83.3446 64.6177 83.53 64.525 83.7155C64.3396 83.9936 64.3396 84.2717 64.3396 84.5498C64.3396 84.828 64.4323 85.1061 64.525 85.3842C64.7104 85.6623 64.8958 85.8478 65.0812 85.9405C65.3594 86.1259 65.6375 86.1259 65.9156 86.1259C66.1937 86.2186 66.4719 86.1259 66.75 85.9405Z" fill="#E5E5E4"/>
<path d="M72.5907 86.1259V86.4967H69.8094V82.5103H72.498V82.8811H70.1803V84.3644H72.2199V84.7353H70.1803V86.2186H72.5907V86.1259Z" fill="#E5E5E4"/>
<path d="M74.7229 86.4041C74.4448 86.3114 74.2594 86.2187 74.074 86.0333L74.2594 85.7552C74.4448 85.9406 74.6302 86.0333 74.8156 86.126C75.0938 86.2187 75.2792 86.2187 75.5573 86.2187C75.9281 86.2187 76.2063 86.126 76.3917 86.0333C76.5771 85.9406 76.6698 85.7552 76.6698 85.5698C76.6698 85.3843 76.5771 85.2916 76.4844 85.1989C76.3917 85.1062 76.299 85.0135 76.1136 85.0135C75.9281 85.0135 75.7427 84.9208 75.5573 84.8281C75.2792 84.7354 75.0011 84.6427 74.8156 84.6427C74.6302 84.55 74.4448 84.4573 74.3521 84.3646C74.2594 84.1791 74.1667 83.9937 74.1667 83.8083C74.1667 83.6229 74.2594 83.4375 74.3521 83.2521C74.4448 83.0666 74.6302 82.9739 74.8156 82.8812C75.0011 82.7885 75.2792 82.6958 75.65 82.6958C75.8354 82.6958 76.1136 82.6958 76.299 82.7885C76.4844 82.8812 76.6698 82.9739 76.8552 83.0666L76.6698 83.4375C76.4844 83.3448 76.299 83.2521 76.1136 83.1593C75.9281 83.0666 75.7427 83.0666 75.5573 83.0666C75.1865 83.0666 74.9083 83.1593 74.8156 83.2521C74.6302 83.3448 74.5375 83.5302 74.5375 83.8083C74.5375 83.9937 74.6302 84.0864 74.7229 84.1791C74.8156 84.2718 74.9083 84.3646 75.0938 84.3646C75.2792 84.3646 75.4646 84.4573 75.65 84.55C75.9281 84.6427 76.2063 84.7354 76.3917 84.7354C76.5771 84.8281 76.7625 84.9208 76.8552 85.0135C76.9479 85.1989 77.0406 85.3843 77.0406 85.5698C77.0406 85.7552 76.9479 85.9406 76.8552 86.126C76.7625 86.3114 76.5771 86.4041 76.3917 86.4968C76.2063 86.5896 75.9281 86.6823 75.5573 86.6823C75.2792 86.5896 75.0011 86.4968 74.7229 86.4041Z" fill="#E5E5E4"/>
<path d="M84.55 82.603V86.5895H84.1792V84.7353H81.6761V86.5895H81.2125V82.603H81.6761V84.3645H84.1792V82.603H84.55Z" fill="#E5E5E4"/>
<path d="M89.5563 86.1259V86.4967H86.775V82.5103H89.4636V82.8811H87.1459V84.3644H89.1854V84.7353H87.1459V86.2186H89.5563V86.1259Z" fill="#E5E5E4"/>
<path d="M94.0991 86.4967L93.172 85.1988C93.0793 85.1988 92.9866 85.1988 92.8939 85.1988H91.8741V86.4967H91.4105V82.5103H92.8939C93.3574 82.5103 93.8209 82.603 94.0991 82.8811C94.3772 83.1592 94.5626 83.4373 94.5626 83.9009C94.5626 84.179 94.4699 84.4571 94.2845 84.6425C94.0991 84.828 93.9136 85.0134 93.6355 85.1061L94.5626 86.4967H94.0991ZM93.8209 84.6425C94.0064 84.4571 94.0991 84.2717 94.0991 83.9009C94.0991 83.6228 94.0064 83.3446 93.8209 83.1592C93.6355 82.9738 93.3574 82.8811 92.8939 82.8811H91.8741V84.828H92.8939C93.2647 84.9207 93.6355 84.828 93.8209 84.6425Z" fill="#E5E5E4"/>
<path d="M99.198 86.1259V86.4967H96.4167V82.5103H99.1053V82.8811H96.7876V84.3644H98.8272V84.7353H96.7876V86.2186H99.198V86.1259Z" fill="#E5E5E4"/>
</svg>
